<?xml version="1.0" encoding="utf-8" standalone="no"?>
<!DOCTYPE svg PUBLIC "-//W3C//DTD SVG 1.1//EN"
  "http://www.w3.org/Graphics/SVG/1.1/DTD/svg11.dtd">
<!-- Created with matplotlib (https://matplotlib.org/) -->
<svg height="345.6pt" version="1.1" viewBox="0 0 460.8 345.6" width="460.8pt" xmlns="http://www.w3.org/2000/svg" xmlns:xlink="http://www.w3.org/1999/xlink">
 <defs>
  <style type="text/css">
*{stroke-linecap:butt;stroke-linejoin:round;}
  </style>
 </defs>
 <g id="figure_1">
  <g id="patch_1">
   <path d="M 0 345.6 
L 460.8 345.6 
L 460.8 0 
L 0 0 
z
" style="fill:#ffffff;"/>
  </g>
  <g id="axes_1">
   <g id="patch_2">
    <path d="M 57.6 307.584 
L 414.72 307.584 
L 414.72 41.472 
L 57.6 41.472 
z
" style="fill:#ffffff;"/>
   </g>
   <g id="matplotlib.axis_1">
    <g id="xtick_1">
     <g id="line2d_1">
      <defs>
       <path d="M 0 0 
L 0 3.5 
" id="mb0977daf51" style="stroke:#000000;stroke-width:0.8;"/>
      </defs>
      <g>
       <use style="stroke:#000000;stroke-width:0.8;" x="73.832727" xlink:href="#mb0977daf51" y="307.584"/>
      </g>
     </g>
     <g id="text_1">
      <!-- 0 -->
      <defs>
       <path d="M 31.78125 66.40625 
Q 24.171875 66.40625 20.328125 58.90625 
Q 16.5 51.421875 16.5 36.375 
Q 16.5 21.390625 20.328125 13.890625 
Q 24.171875 6.390625 31.78125 6.390625 
Q 39.453125 6.390625 43.28125 13.890625 
Q 47.125 21.390625 47.125 36.375 
Q 47.125 51.421875 43.28125 58.90625 
Q 39.453125 66.40625 31.78125 66.40625 
z
M 31.78125 74.21875 
Q 44.046875 74.21875 50.515625 64.515625 
Q 56.984375 54.828125 56.984375 36.375 
Q 56.984375 17.96875 50.515625 8.265625 
Q 44.046875 -1.421875 31.78125 -1.421875 
Q 19.53125 -1.421875 13.0625 8.265625 
Q 6.59375 17.96875 6.59375 36.375 
Q 6.59375 54.828125 13.0625 64.515625 
Q 19.53125 74.21875 31.78125 74.21875 
z
" id="DejaVuSans-48"/>
      </defs>
      <g transform="translate(70.651477 322.182437)scale(0.1 -0.1)">
       <use xlink:href="#DejaVuSans-48"/>
      </g>
     </g>
    </g>
    <g id="xtick_2">
     <g id="line2d_2">
      <g>
       <use style="stroke:#000000;stroke-width:0.8;" x="138.763636" xlink:href="#mb0977daf51" y="307.584"/>
      </g>
     </g>
     <g id="text_2">
      <!-- 100 -->
      <defs>
       <path d="M 12.40625 8.296875 
L 28.515625 8.296875 
L 28.515625 63.921875 
L 10.984375 60.40625 
L 10.984375 69.390625 
L 28.421875 72.90625 
L 38.28125 72.90625 
L 38.28125 8.296875 
L 54.390625 8.296875 
L 54.390625 0 
L 12.40625 0 
z
" id="DejaVuSans-49"/>
      </defs>
      <g transform="translate(129.219886 322.182437)scale(0.1 -0.1)">
       <use xlink:href="#DejaVuSans-49"/>
       <use x="63.623047" xlink:href="#DejaVuSans-48"/>
       <use x="127.246094" xlink:href="#DejaVuSans-48"/>
      </g>
     </g>
    </g>
    <g id="xtick_3">
     <g id="line2d_3">
      <g>
       <use style="stroke:#000000;stroke-width:0.8;" x="203.694545" xlink:href="#mb0977daf51" y="307.584"/>
      </g>
     </g>
     <g id="text_3">
      <!-- 200 -->
      <defs>
       <path d="M 19.1875 8.296875 
L 53.609375 8.296875 
L 53.609375 0 
L 7.328125 0 
L 7.328125 8.296875 
Q 12.9375 14.109375 22.625 23.890625 
Q 32.328125 33.6875 34.8125 36.53125 
Q 39.546875 41.84375 41.421875 45.53125 
Q 43.3125 49.21875 43.3125 52.78125 
Q 43.3125 58.59375 39.234375 62.25 
Q 35.15625 65.921875 28.609375 65.921875 
Q 23.96875 65.921875 18.8125 64.3125 
Q 13.671875 62.703125 7.8125 59.421875 
L 7.8125 69.390625 
Q 13.765625 71.78125 18.9375 73 
Q 24.125 74.21875 28.421875 74.21875 
Q 39.75 74.21875 46.484375 68.546875 
Q 53.21875 62.890625 53.21875 53.421875 
Q 53.21875 48.921875 51.53125 44.890625 
Q 49.859375 40.875 45.40625 35.40625 
Q 44.1875 33.984375 37.640625 27.21875 
Q 31.109375 20.453125 19.1875 8.296875 
z
" id="DejaVuSans-50"/>
      </defs>
      <g transform="translate(194.150795 322.182437)scale(0.1 -0.1)">
       <use xlink:href="#DejaVuSans-50"/>
       <use x="63.623047" xlink:href="#DejaVuSans-48"/>
       <use x="127.246094" xlink:href="#DejaVuSans-48"/>
      </g>
     </g>
    </g>
    <g id="xtick_4">
     <g id="line2d_4">
      <g>
       <use style="stroke:#000000;stroke-width:0.8;" x="268.625455" xlink:href="#mb0977daf51" y="307.584"/>
      </g>
     </g>
     <g id="text_4">
      <!-- 300 -->
      <defs>
       <path d="M 40.578125 39.3125 
Q 47.65625 37.796875 51.625 33 
Q 55.609375 28.21875 55.609375 21.1875 
Q 55.609375 10.40625 48.1875 4.484375 
Q 40.765625 -1.421875 27.09375 -1.421875 
Q 22.515625 -1.421875 17.65625 -0.515625 
Q 12.796875 0.390625 7.625 2.203125 
L 7.625 11.71875 
Q 11.71875 9.328125 16.59375 8.109375 
Q 21.484375 6.890625 26.8125 6.890625 
Q 36.078125 6.890625 40.9375 10.546875 
Q 45.796875 14.203125 45.796875 21.1875 
Q 45.796875 27.640625 41.28125 31.265625 
Q 36.765625 34.90625 28.71875 34.90625 
L 20.21875 34.90625 
L 20.21875 43.015625 
L 29.109375 43.015625 
Q 36.375 43.015625 40.234375 45.921875 
Q 44.09375 48.828125 44.09375 54.296875 
Q 44.09375 59.90625 40.109375 62.90625 
Q 36.140625 65.921875 28.71875 65.921875 
Q 24.65625 65.921875 20.015625 65.03125 
Q 15.375 64.15625 9.8125 62.3125 
L 9.8125 71.09375 
Q 15.4375 72.65625 20.34375 73.4375 
Q 25.25 74.21875 29.59375 74.21875 
Q 40.828125 74.21875 47.359375 69.109375 
Q 53.90625 64.015625 53.90625 55.328125 
Q 53.90625 49.265625 50.4375 45.09375 
Q 46.96875 40.921875 40.578125 39.3125 
z
" id="DejaVuSans-51"/>
      </defs>
      <g transform="translate(259.081705 322.182437)scale(0.1 -0.1)">
       <use xlink:href="#DejaVuSans-51"/>
       <use x="63.623047" xlink:href="#DejaVuSans-48"/>
       <use x="127.246094" xlink:href="#DejaVuSans-48"/>
      </g>
     </g>
    </g>
    <g id="xtick_5">
     <g id="line2d_5">
      <g>
       <use style="stroke:#000000;stroke-width:0.8;" x="333.556364" xlink:href="#mb0977daf51" y="307.584"/>
      </g>
     </g>
     <g id="text_5">
      <!-- 400 -->
      <defs>
       <path d="M 37.796875 64.3125 
L 12.890625 25.390625 
L 37.796875 25.390625 
z
M 35.203125 72.90625 
L 47.609375 72.90625 
L 47.609375 25.390625 
L 58.015625 25.390625 
L 58.015625 17.1875 
L 47.609375 17.1875 
L 47.609375 0 
L 37.796875 0 
L 37.796875 17.1875 
L 4.890625 17.1875 
L 4.890625 26.703125 
z
" id="DejaVuSans-52"/>
      </defs>
      <g transform="translate(324.012614 322.182437)scale(0.1 -0.1)">
       <use xlink:href="#DejaVuSans-52"/>
       <use x="63.623047" xlink:href="#DejaVuSans-48"/>
       <use x="127.246094" xlink:href="#DejaVuSans-48"/>
      </g>
     </g>
    </g>
    <g id="xtick_6">
     <g id="line2d_6">
      <g>
       <use style="stroke:#000000;stroke-width:0.8;" x="398.487273" xlink:href="#mb0977daf51" y="307.584"/>
      </g>
     </g>
     <g id="text_6">
      <!-- 500 -->
      <defs>
       <path d="M 10.796875 72.90625 
L 49.515625 72.90625 
L 49.515625 64.59375 
L 19.828125 64.59375 
L 19.828125 46.734375 
Q 21.96875 47.46875 24.109375 47.828125 
Q 26.265625 48.1875 28.421875 48.1875 
Q 40.625 48.1875 47.75 41.5 
Q 54.890625 34.8125 54.890625 23.390625 
Q 54.890625 11.625 47.5625 5.09375 
Q 40.234375 -1.421875 26.90625 -1.421875 
Q 22.3125 -1.421875 17.546875 -0.640625 
Q 12.796875 0.140625 7.71875 1.703125 
L 7.71875 11.625 
Q 12.109375 9.234375 16.796875 8.0625 
Q 21.484375 6.890625 26.703125 6.890625 
Q 35.15625 6.890625 40.078125 11.328125 
Q 45.015625 15.765625 45.015625 23.390625 
Q 45.015625 31 40.078125 35.4375 
Q 35.15625 39.890625 26.703125 39.890625 
Q 22.75 39.890625 18.8125 39.015625 
Q 14.890625 38.140625 10.796875 36.28125 
z
" id="DejaVuSans-53"/>
      </defs>
      <g transform="translate(388.943523 322.182437)scale(0.1 -0.1)">
       <use xlink:href="#DejaVuSans-53"/>
       <use x="63.623047" xlink:href="#DejaVuSans-48"/>
       <use x="127.246094" xlink:href="#DejaVuSans-48"/>
      </g>
     </g>
    </g>
    <g id="text_7">
     <!-- Day -->
     <defs>
      <path d="M 19.671875 64.796875 
L 19.671875 8.109375 
L 31.59375 8.109375 
Q 46.6875 8.109375 53.6875 14.9375 
Q 60.6875 21.78125 60.6875 36.53125 
Q 60.6875 51.171875 53.6875 57.984375 
Q 46.6875 64.796875 31.59375 64.796875 
z
M 9.8125 72.90625 
L 30.078125 72.90625 
Q 51.265625 72.90625 61.171875 64.09375 
Q 71.09375 55.28125 71.09375 36.53125 
Q 71.09375 17.671875 61.125 8.828125 
Q 51.171875 0 30.078125 0 
L 9.8125 0 
z
" id="DejaVuSans-68"/>
      <path d="M 34.28125 27.484375 
Q 23.390625 27.484375 19.1875 25 
Q 14.984375 22.515625 14.984375 16.5 
Q 14.984375 11.71875 18.140625 8.90625 
Q 21.296875 6.109375 26.703125 6.109375 
Q 34.1875 6.109375 38.703125 11.40625 
Q 43.21875 16.703125 43.21875 25.484375 
L 43.21875 27.484375 
z
M 52.203125 31.203125 
L 52.203125 0 
L 43.21875 0 
L 43.21875 8.296875 
Q 40.140625 3.328125 35.546875 0.953125 
Q 30.953125 -1.421875 24.3125 -1.421875 
Q 15.921875 -1.421875 10.953125 3.296875 
Q 6 8.015625 6 15.921875 
Q 6 25.140625 12.171875 29.828125 
Q 18.359375 34.515625 30.609375 34.515625 
L 43.21875 34.515625 
L 43.21875 35.40625 
Q 43.21875 41.609375 39.140625 45 
Q 35.0625 48.390625 27.6875 48.390625 
Q 23 48.390625 18.546875 47.265625 
Q 14.109375 46.140625 10.015625 43.890625 
L 10.015625 52.203125 
Q 14.9375 54.109375 19.578125 55.046875 
Q 24.21875 56 28.609375 56 
Q 40.484375 56 46.34375 49.84375 
Q 52.203125 43.703125 52.203125 31.203125 
z
" id="DejaVuSans-97"/>
      <path d="M 32.171875 -5.078125 
Q 28.375 -14.84375 24.75 -17.8125 
Q 21.140625 -20.796875 15.09375 -20.796875 
L 7.90625 -20.796875 
L 7.90625 -13.28125 
L 13.1875 -13.28125 
Q 16.890625 -13.28125 18.9375 -11.515625 
Q 21 -9.765625 23.484375 -3.21875 
L 25.09375 0.875 
L 2.984375 54.6875 
L 12.5 54.6875 
L 29.59375 11.921875 
L 46.6875 54.6875 
L 56.203125 54.6875 
z
" id="DejaVuSans-121"/>
     </defs>
     <g transform="translate(226.286563 335.860562)scale(0.1 -0.1)">
      <use xlink:href="#DejaVuSans-68"/>
      <use x="77.001953" xlink:href="#DejaVuSans-97"/>
      <use x="138.28125" xlink:href="#DejaVuSans-121"/>
     </g>
    </g>
   </g>
   <g id="matplotlib.axis_2">
    <g id="ytick_1">
     <g id="line2d_7">
      <defs>
       <path d="M 0 0 
L -3.5 0 
" id="mc2e28e446a" style="stroke:#000000;stroke-width:0.8;"/>
      </defs>
      <g>
       <use style="stroke:#000000;stroke-width:0.8;" x="57.6" xlink:href="#mc2e28e446a" y="295.488"/>
      </g>
     </g>
     <g id="text_8">
      <!-- 0 -->
      <g transform="translate(44.2375 299.287219)scale(0.1 -0.1)">
       <use xlink:href="#DejaVuSans-48"/>
      </g>
     </g>
    </g>
    <g id="ytick_2">
     <g id="line2d_8">
      <g>
       <use style="stroke:#000000;stroke-width:0.8;" x="57.6" xlink:href="#mc2e28e446a" y="255.958588"/>
      </g>
     </g>
     <g id="text_9">
      <!-- 50 -->
      <g transform="translate(37.875 259.757807)scale(0.1 -0.1)">
       <use xlink:href="#DejaVuSans-53"/>
       <use x="63.623047" xlink:href="#DejaVuSans-48"/>
      </g>
     </g>
    </g>
    <g id="ytick_3">
     <g id="line2d_9">
      <g>
       <use style="stroke:#000000;stroke-width:0.8;" x="57.6" xlink:href="#mc2e28e446a" y="216.429176"/>
      </g>
     </g>
     <g id="text_10">
      <!-- 100 -->
      <g transform="translate(31.5125 220.228395)scale(0.1 -0.1)">
       <use xlink:href="#DejaVuSans-49"/>
       <use x="63.623047" xlink:href="#DejaVuSans-48"/>
       <use x="127.246094" xlink:href="#DejaVuSans-48"/>
      </g>
     </g>
    </g>
    <g id="ytick_4">
     <g id="line2d_10">
      <g>
       <use style="stroke:#000000;stroke-width:0.8;" x="57.6" xlink:href="#mc2e28e446a" y="176.899765"/>
      </g>
     </g>
     <g id="text_11">
      <!-- 150 -->
      <g transform="translate(31.5125 180.698983)scale(0.1 -0.1)">
       <use xlink:href="#DejaVuSans-49"/>
       <use x="63.623047" xlink:href="#DejaVuSans-53"/>
       <use x="127.246094" xlink:href="#DejaVuSans-48"/>
      </g>
     </g>
    </g>
    <g id="ytick_5">
     <g id="line2d_11">
      <g>
       <use style="stroke:#000000;stroke-width:0.8;" x="57.6" xlink:href="#mc2e28e446a" y="137.370353"/>
      </g>
     </g>
     <g id="text_12">
      <!-- 200 -->
      <g transform="translate(31.5125 141.169572)scale(0.1 -0.1)">
       <use xlink:href="#DejaVuSans-50"/>
       <use x="63.623047" xlink:href="#DejaVuSans-48"/>
       <use x="127.246094" xlink:href="#DejaVuSans-48"/>
      </g>
     </g>
    </g>
    <g id="ytick_6">
     <g id="line2d_12">
      <g>
       <use style="stroke:#000000;stroke-width:0.8;" x="57.6" xlink:href="#mc2e28e446a" y="97.840941"/>
      </g>
     </g>
     <g id="text_13">
      <!-- 250 -->
      <g transform="translate(31.5125 101.64016)scale(0.1 -0.1)">
       <use xlink:href="#DejaVuSans-50"/>
       <use x="63.623047" xlink:href="#DejaVuSans-53"/>
       <use x="127.246094" xlink:href="#DejaVuSans-48"/>
      </g>
     </g>
    </g>
    <g id="ytick_7">
     <g id="line2d_13">
      <g>
       <use style="stroke:#000000;stroke-width:0.8;" x="57.6" xlink:href="#mc2e28e446a" y="58.311529"/>
      </g>
     </g>
     <g id="text_14">
      <!-- 300 -->
      <g transform="translate(31.5125 62.110748)scale(0.1 -0.1)">
       <use xlink:href="#DejaVuSans-51"/>
       <use x="63.623047" xlink:href="#DejaVuSans-48"/>
       <use x="127.246094" xlink:href="#DejaVuSans-48"/>
      </g>
     </g>
    </g>
    <g id="text_15">
     <!-- New cases -->
     <defs>
      <path d="M 9.8125 72.90625 
L 23.09375 72.90625 
L 55.421875 11.921875 
L 55.421875 72.90625 
L 64.984375 72.90625 
L 64.984375 0 
L 51.703125 0 
L 19.390625 60.984375 
L 19.390625 0 
L 9.8125 0 
z
" id="DejaVuSans-78"/>
      <path d="M 56.203125 29.59375 
L 56.203125 25.203125 
L 14.890625 25.203125 
Q 15.484375 15.921875 20.484375 11.0625 
Q 25.484375 6.203125 34.421875 6.203125 
Q 39.59375 6.203125 44.453125 7.46875 
Q 49.3125 8.734375 54.109375 11.28125 
L 54.109375 2.78125 
Q 49.265625 0.734375 44.1875 -0.34375 
Q 39.109375 -1.421875 33.890625 -1.421875 
Q 20.796875 -1.421875 13.15625 6.1875 
Q 5.515625 13.8125 5.515625 26.8125 
Q 5.515625 40.234375 12.765625 48.109375 
Q 20.015625 56 32.328125 56 
Q 43.359375 56 49.78125 48.890625 
Q 56.203125 41.796875 56.203125 29.59375 
z
M 47.21875 32.234375 
Q 47.125 39.59375 43.09375 43.984375 
Q 39.0625 48.390625 32.421875 48.390625 
Q 24.90625 48.390625 20.390625 44.140625 
Q 15.875 39.890625 15.1875 32.171875 
z
" id="DejaVuSans-101"/>
      <path d="M 4.203125 54.6875 
L 13.1875 54.6875 
L 24.421875 12.015625 
L 35.59375 54.6875 
L 46.1875 54.6875 
L 57.421875 12.015625 
L 68.609375 54.6875 
L 77.59375 54.6875 
L 63.28125 0 
L 52.6875 0 
L 40.921875 44.828125 
L 29.109375 0 
L 18.5 0 
z
" id="DejaVuSans-119"/>
      <path id="DejaVuSans-32"/>
      <path d="M 48.78125 52.59375 
L 48.78125 44.1875 
Q 44.96875 46.296875 41.140625 47.34375 
Q 37.3125 48.390625 33.40625 48.390625 
Q 24.65625 48.390625 19.8125 42.84375 
Q 14.984375 37.3125 14.984375 27.296875 
Q 14.984375 17.28125 19.8125 11.734375 
Q 24.65625 6.203125 33.40625 6.203125 
Q 37.3125 6.203125 41.140625 7.25 
Q 44.96875 8.296875 48.78125 10.40625 
L 48.78125 2.09375 
Q 45.015625 0.34375 40.984375 -0.53125 
Q 36.96875 -1.421875 32.421875 -1.421875 
Q 20.0625 -1.421875 12.78125 6.34375 
Q 5.515625 14.109375 5.515625 27.296875 
Q 5.515625 40.671875 12.859375 48.328125 
Q 20.21875 56 33.015625 56 
Q 37.15625 56 41.109375 55.140625 
Q 45.0625 54.296875 48.78125 52.59375 
z
" id="DejaVuSans-99"/>
      <path d="M 44.28125 53.078125 
L 44.28125 44.578125 
Q 40.484375 46.53125 36.375 47.5 
Q 32.28125 48.484375 27.875 48.484375 
Q 21.1875 48.484375 17.84375 46.4375 
Q 14.5 44.390625 14.5 40.28125 
Q 14.5 37.15625 16.890625 35.375 
Q 19.28125 33.59375 26.515625 31.984375 
L 29.59375 31.296875 
Q 39.15625 29.25 43.1875 25.515625 
Q 47.21875 21.78125 47.21875 15.09375 
Q 47.21875 7.46875 41.1875 3.015625 
Q 35.15625 -1.421875 24.609375 -1.421875 
Q 20.21875 -1.421875 15.453125 -0.5625 
Q 10.6875 0.296875 5.421875 2 
L 5.421875 11.28125 
Q 10.40625 8.6875 15.234375 7.390625 
Q 20.0625 6.109375 24.8125 6.109375 
Q 31.15625 6.109375 34.5625 8.28125 
Q 37.984375 10.453125 37.984375 14.40625 
Q 37.984375 18.0625 35.515625 20.015625 
Q 33.0625 21.96875 24.703125 23.78125 
L 21.578125 24.515625 
Q 13.234375 26.265625 9.515625 29.90625 
Q 5.8125 33.546875 5.8125 39.890625 
Q 5.8125 47.609375 11.28125 51.796875 
Q 16.75 56 26.8125 56 
Q 31.78125 56 36.171875 55.265625 
Q 40.578125 54.546875 44.28125 53.078125 
z
" id="DejaVuSans-115"/>
     </defs>
     <g transform="translate(25.432812 201.122531)rotate(-90)scale(0.1 -0.1)">
      <use xlink:href="#DejaVuSans-78"/>
      <use x="74.804688" xlink:href="#DejaVuSans-101"/>
      <use x="136.328125" xlink:href="#DejaVuSans-119"/>
      <use x="218.115234" xlink:href="#DejaVuSans-32"/>
      <use x="249.902344" xlink:href="#DejaVuSans-99"/>
      <use x="304.882812" xlink:href="#DejaVuSans-97"/>
      <use x="366.162109" xlink:href="#DejaVuSans-115"/>
      <use x="418.261719" xlink:href="#DejaVuSans-101"/>
      <use x="479.785156" xlink:href="#DejaVuSans-115"/>
     </g>
    </g>
   </g>
   <g id="line2d_14">
    <path clip-path="url(#p56ddfa7b33)" d="M 73.832727 295.488 
L 398.487273 295.488 
L 398.487273 295.488 
" style="fill:none;stroke:#1f77b4;stroke-linecap:square;stroke-width:1.5;"/>
   </g>
   <g id="line2d_15">
    <path clip-path="url(#p56ddfa7b33)" d="M 73.832727 295.488 
L 79.0272 295.488 
L 79.676509 293.116235 
L 80.325818 295.488 
L 84.870982 295.488 
L 86.1696 293.906824 
L 86.818909 295.488 
L 91.364073 295.488 
L 92.013382 294.697412 
L 92.662691 295.488 
L 93.312 293.906824 
L 93.961309 295.488 
L 94.610618 294.697412 
L 95.259927 295.488 
L 99.155782 295.488 
L 99.805091 293.906824 
L 100.4544 295.488 
L 101.103709 294.697412 
L 101.753018 295.488 
L 103.700945 295.488 
L 104.999564 292.325647 
L 105.648873 295.488 
L 109.544727 295.488 
L 110.194036 293.906824 
L 111.492655 295.488 
L 112.141964 292.325647 
L 112.791273 295.488 
L 113.440582 293.116235 
L 114.089891 293.116235 
L 114.7392 295.488 
L 116.037818 295.488 
L 116.687127 293.906824 
L 117.336436 293.906824 
L 117.985745 291.535059 
L 118.635055 295.488 
L 119.933673 292.325647 
L 120.582982 293.906824 
L 121.232291 294.697412 
L 121.8816 293.906824 
L 122.530909 295.488 
L 123.180218 292.325647 
L 123.829527 295.488 
L 124.478836 293.906824 
L 125.128145 293.116235 
L 125.777455 291.535059 
L 126.426764 294.697412 
L 127.076073 291.535059 
L 127.725382 291.535059 
L 128.374691 295.488 
L 129.024 294.697412 
L 129.673309 290.744471 
L 130.322618 289.953882 
L 130.971927 294.697412 
L 131.621236 293.116235 
L 132.270545 295.488 
L 132.919855 289.163294 
L 133.569164 293.906824 
L 134.218473 292.325647 
L 134.867782 292.325647 
L 135.517091 291.535059 
L 136.1664 293.116235 
L 136.815709 292.325647 
L 138.114327 293.906824 
L 138.763636 290.744471 
L 139.412945 289.953882 
L 140.062255 289.953882 
L 140.711564 287.582118 
L 141.360873 293.906824 
L 142.010182 291.535059 
L 142.659491 292.325647 
L 143.3088 290.744471 
L 143.958109 288.372706 
L 144.607418 286.791529 
L 145.256727 289.163294 
L 146.555345 290.744471 
L 147.204655 289.163294 
L 147.853964 294.697412 
L 149.152582 286.791529 
L 149.801891 286.000941 
L 150.4512 282.838588 
L 151.100509 290.744471 
L 152.399127 277.304471 
L 153.048436 289.163294 
L 153.697745 288.372706 
L 154.347055 285.210353 
L 154.996364 289.953882 
L 155.645673 286.791529 
L 156.294982 286.791529 
L 156.944291 289.163294 
L 157.5936 286.791529 
L 158.242909 281.257412 
L 158.892218 286.791529 
L 159.541527 280.466824 
L 160.190836 284.419765 
L 160.840145 280.466824 
L 161.489455 284.419765 
L 162.138764 284.419765 
L 162.788073 285.210353 
L 163.437382 285.210353 
L 164.086691 291.535059 
L 164.736 283.629176 
L 165.385309 286.791529 
L 166.034618 270.979765 
L 166.683927 286.791529 
L 167.333236 287.582118 
L 167.982545 279.676235 
L 168.631855 282.048 
L 169.281164 281.257412 
L 169.930473 286.000941 
L 170.579782 282.048 
L 171.229091 277.304471 
L 171.8784 280.466824 
L 172.527709 278.095059 
L 173.177018 278.095059 
L 173.826327 285.210353 
L 174.475636 280.466824 
L 175.124945 282.048 
L 175.774255 263.073882 
L 176.423564 274.142118 
L 177.072873 267.026824 
L 177.722182 272.560941 
L 178.371491 282.838588 
L 179.0208 281.257412 
L 179.670109 280.466824 
L 180.319418 273.351529 
L 180.968727 275.723294 
L 181.618036 263.864471 
L 182.267345 270.979765 
L 182.916655 260.702118 
L 183.565964 273.351529 
L 184.215273 271.770353 
L 184.864582 259.120941 
L 185.513891 278.885647 
L 186.812509 267.026824 
L 187.461818 265.445647 
L 188.111127 268.608 
L 188.760436 250.424471 
L 189.409745 269.398588 
L 190.059055 267.026824 
L 190.708364 261.492706 
L 191.357673 249.633882 
L 192.006982 264.655059 
L 192.656291 267.817412 
L 193.3056 248.843294 
L 193.954909 251.215059 
L 194.604218 245.680941 
L 195.253527 248.843294 
L 195.902836 270.979765 
L 196.552145 269.398588 
L 197.201455 259.911529 
L 197.850764 238.565647 
L 198.500073 247.262118 
L 199.149382 239.356235 
L 200.448 255.958588 
L 201.097309 259.911529 
L 201.746618 240.146824 
L 202.395927 236.193882 
L 204.343855 251.215059 
L 204.993164 251.215059 
L 205.642473 255.958588 
L 206.291782 240.146824 
L 206.941091 218.800941 
L 207.5904 221.963294 
L 208.239709 221.172706 
L 208.889018 229.078588 
L 209.538327 231.450353 
L 210.187636 251.215059 
L 210.836945 227.497412 
L 211.486255 216.429176 
L 212.135564 218.800941 
L 212.784873 214.848 
L 213.434182 218.010353 
L 214.083491 210.104471 
L 214.7328 221.963294 
L 215.382109 245.680941 
L 216.031418 206.151529 
L 216.680727 195.873882 
L 217.330036 194.292706 
L 217.979345 213.266824 
L 218.628655 194.292706 
L 219.277964 221.172706 
L 219.927273 220.382118 
L 220.576582 210.104471 
L 221.225891 195.083294 
L 221.8752 184.015059 
L 222.524509 182.433882 
L 223.173818 181.643294 
L 223.823127 206.151529 
L 224.472436 220.382118 
L 225.121745 177.690353 
L 225.771055 183.224471 
L 227.069673 171.365647 
L 227.718982 159.506824 
L 228.368291 210.104471 
L 229.0176 196.664471 
L 229.666909 147.648 
L 230.316218 161.878588 
L 230.965527 168.203294 
L 231.614836 180.852706 
L 232.264145 165.040941 
L 232.913455 185.596235 
L 233.562764 174.528 
L 234.212073 140.532706 
L 234.861382 153.182118 
L 235.510691 138.951529 
L 236.16 150.810353 
L 236.809309 142.113882 
L 237.458618 194.292706 
L 238.107927 169.784471 
L 238.757236 132.626824 
L 239.406545 135.789176 
L 240.055855 134.998588 
L 240.705164 135.789176 
L 241.354473 101.003294 
L 242.003782 160.297412 
L 242.653091 180.852706 
L 243.3024 142.904471 
L 243.951709 138.160941 
L 244.601018 139.742118 
L 245.250327 116.024471 
L 245.899636 98.631529 
L 246.548945 146.857412 
L 247.198255 155.553882 
L 247.847564 93.097412 
L 248.496873 139.742118 
L 249.146182 107.328 
L 249.795491 112.071529 
L 250.4448 97.050353 
L 251.094109 149.229176 
L 251.743418 174.528 
L 252.392727 113.652706 
L 253.042036 91.516235 
L 253.691345 81.238588 
L 254.340655 111.280941 
L 254.989964 87.563294 
L 255.639273 161.088 
L 256.288582 103.375059 
L 256.937891 90.725647 
L 257.5872 105.746824 
L 258.236509 82.029176 
L 258.885818 106.537412 
L 259.535127 117.605647 
L 260.184436 153.972706 
L 260.833745 128.673882 
L 261.483055 92.306824 
L 262.132364 113.652706 
L 262.781673 87.563294 
L 263.430982 97.840941 
L 264.080291 124.720941 
L 264.7296 142.904471 
L 265.378909 155.553882 
L 266.028218 118.396235 
L 266.677527 118.396235 
L 267.326836 76.495059 
L 267.976145 82.819765 
L 268.625455 112.071529 
L 269.274764 133.417412 
L 269.924073 172.946824 
L 270.573382 136.579765 
L 271.222691 107.328 
L 271.872 127.883294 
L 272.521309 93.097412 
L 273.819927 165.040941 
L 274.469236 172.156235 
L 275.118545 123.139765 
L 275.767855 117.605647 
L 276.417164 120.768 
L 277.066473 132.626824 
L 277.715782 172.946824 
L 278.365091 184.805647 
L 279.663709 131.836235 
L 280.313018 133.417412 
L 280.962327 153.972706 
L 281.611636 137.370353 
L 282.260945 148.438588 
L 283.559564 193.502118 
L 284.208873 154.763294 
L 285.507491 165.040941 
L 286.1568 175.318588 
L 286.806109 139.742118 
L 287.455418 202.198588 
L 288.104727 201.408 
L 288.754036 168.993882 
L 289.403345 172.946824 
L 290.052655 186.386824 
L 290.701964 187.968 
L 291.351273 184.015059 
L 292.000582 216.429176 
L 292.649891 227.497412 
L 293.2992 177.690353 
L 293.948509 187.177412 
L 294.597818 214.848 
L 295.247127 197.455059 
L 297.195055 229.078588 
L 297.844364 200.617412 
L 298.493673 210.895059 
L 299.142982 203.779765 
L 299.792291 217.219765 
L 300.4416 209.313882 
L 301.090909 237.775059 
L 301.740218 243.309176 
L 302.389527 238.565647 
L 303.038836 225.125647 
L 303.688145 229.869176 
L 304.337455 211.685647 
L 304.986764 227.497412 
L 305.636073 248.052706 
L 306.285382 237.775059 
L 306.934691 245.680941 
L 307.584 237.775059 
L 308.233309 242.518588 
L 308.882618 244.099765 
L 309.531927 244.890353 
L 310.181236 257.539765 
L 310.830545 255.168 
L 311.479855 240.937412 
L 312.129164 254.377412 
L 312.778473 245.680941 
L 313.427782 252.796235 
L 314.077091 256.749176 
L 314.7264 250.424471 
L 315.375709 260.702118 
L 316.025018 259.120941 
L 316.674327 252.796235 
L 317.323636 263.864471 
L 318.622255 250.424471 
L 319.271564 269.398588 
L 319.920873 265.445647 
L 320.570182 251.215059 
L 321.219491 270.979765 
L 321.8688 271.770353 
L 322.518109 264.655059 
L 323.167418 278.885647 
L 323.816727 275.723294 
L 324.466036 267.817412 
L 325.115345 269.398588 
L 325.764655 262.283294 
L 326.413964 278.885647 
L 327.063273 277.304471 
L 327.712582 274.142118 
L 328.361891 280.466824 
L 329.0112 282.838588 
L 329.660509 269.398588 
L 330.309818 264.655059 
L 330.959127 274.932706 
L 331.608436 278.095059 
L 332.257745 282.048 
L 332.907055 278.095059 
L 333.556364 285.210353 
L 334.205673 284.419765 
L 334.854982 278.095059 
L 335.504291 284.419765 
L 336.1536 284.419765 
L 336.802909 275.723294 
L 337.452218 286.791529 
L 338.101527 284.419765 
L 338.750836 278.095059 
L 339.400145 278.095059 
L 340.049455 280.466824 
L 340.698764 283.629176 
L 341.997382 283.629176 
L 342.646691 291.535059 
L 343.296 285.210353 
L 343.945309 276.513882 
L 344.594618 284.419765 
L 345.243927 282.048 
L 345.893236 286.000941 
L 346.542545 287.582118 
L 347.191855 285.210353 
L 347.841164 286.791529 
L 348.490473 286.000941 
L 349.139782 287.582118 
L 349.789091 286.791529 
L 350.4384 287.582118 
L 351.087709 292.325647 
L 351.737018 289.953882 
L 352.386327 290.744471 
L 353.035636 287.582118 
L 353.684945 280.466824 
L 354.334255 288.372706 
L 354.983564 289.163294 
L 355.632873 290.744471 
L 356.282182 286.791529 
L 356.931491 293.116235 
L 357.5808 289.953882 
L 358.230109 287.582118 
L 358.879418 293.906824 
L 359.528727 290.744471 
L 360.178036 289.953882 
L 360.827345 290.744471 
L 361.476655 292.325647 
L 362.125964 290.744471 
L 362.775273 289.953882 
L 363.424582 290.744471 
L 364.073891 289.953882 
L 364.7232 293.116235 
L 365.372509 293.906824 
L 366.671127 292.325647 
L 367.320436 294.697412 
L 367.969745 290.744471 
L 368.619055 289.163294 
L 369.268364 294.697412 
L 369.917673 293.906824 
L 370.566982 293.906824 
L 371.216291 291.535059 
L 372.514909 293.116235 
L 373.164218 293.116235 
L 373.813527 290.744471 
L 374.462836 293.906824 
L 375.112145 289.953882 
L 375.761455 293.906824 
L 376.410764 293.116235 
L 377.060073 294.697412 
L 377.709382 295.488 
L 378.358691 294.697412 
L 379.008 295.488 
L 379.657309 293.906824 
L 380.306618 295.488 
L 380.955927 294.697412 
L 381.605236 291.535059 
L 382.903855 294.697412 
L 383.553164 293.116235 
L 384.202473 293.116235 
L 384.851782 295.488 
L 386.1504 295.488 
L 387.449018 293.906824 
L 388.098327 293.906824 
L 388.747636 291.535059 
L 389.396945 292.325647 
L 390.046255 295.488 
L 390.695564 294.697412 
L 391.344873 294.697412 
L 391.994182 293.906824 
L 392.643491 295.488 
L 393.942109 293.906824 
L 394.591418 294.697412 
L 395.240727 293.906824 
L 395.890036 294.697412 
L 396.539345 293.906824 
L 397.837964 295.488 
L 398.487273 295.488 
L 398.487273 295.488 
" style="fill:none;stroke:#ff7f0e;stroke-linecap:square;stroke-width:1.5;"/>
   </g>
   <g id="line2d_16">
    <path clip-path="url(#p56ddfa7b33)" d="M 73.832727 295.488 
L 398.487273 295.488 
L 398.487273 295.488 
" style="fill:none;stroke:#2ca02c;stroke-linecap:square;stroke-width:1.5;"/>
   </g>
   <g id="line2d_17">
    <path clip-path="url(#p56ddfa7b33)" d="M 73.832727 295.488 
L 79.676509 295.488 
L 80.325818 293.906824 
L 80.975127 295.488 
L 84.221673 295.488 
L 84.870982 294.697412 
L 85.520291 295.488 
L 89.416145 295.488 
L 90.065455 294.697412 
L 90.714764 295.488 
L 398.487273 295.488 
L 398.487273 295.488 
" style="fill:none;stroke:#d62728;stroke-linecap:square;stroke-width:1.5;"/>
   </g>
   <g id="line2d_18">
    <path clip-path="url(#p56ddfa7b33)" d="M 73.832727 295.488 
L 79.0272 295.488 
L 79.676509 294.697412 
L 80.325818 295.488 
L 80.975127 294.697412 
L 81.624436 295.488 
L 88.117527 295.488 
L 88.766836 293.906824 
L 89.416145 294.697412 
L 90.065455 293.906824 
L 90.714764 295.488 
L 95.259927 295.488 
L 95.909236 293.116235 
L 96.558545 295.488 
L 103.051636 295.488 
L 103.700945 293.906824 
L 104.350255 291.535059 
L 104.999564 295.488 
L 110.194036 295.488 
L 110.843345 293.116235 
L 111.492655 295.488 
L 112.141964 293.906824 
L 113.440582 295.488 
L 114.089891 295.488 
L 114.7392 294.697412 
L 115.388509 295.488 
L 117.336436 295.488 
L 117.985745 292.325647 
L 118.635055 293.906824 
L 119.933673 295.488 
L 120.582982 295.488 
L 121.232291 294.697412 
L 121.8816 294.697412 
L 122.530909 295.488 
L 123.829527 295.488 
L 124.478836 293.116235 
L 125.128145 294.697412 
L 125.777455 295.488 
L 126.426764 293.116235 
L 127.076073 295.488 
L 127.725382 293.906824 
L 128.374691 293.116235 
L 129.024 295.488 
L 129.673309 295.488 
L 130.322618 293.906824 
L 130.971927 295.488 
L 132.919855 295.488 
L 133.569164 294.697412 
L 134.218473 294.697412 
L 134.867782 293.906824 
L 135.517091 291.535059 
L 136.1664 293.906824 
L 136.815709 295.488 
L 137.465018 294.697412 
L 138.114327 294.697412 
L 138.763636 295.488 
L 139.412945 294.697412 
L 140.062255 295.488 
L 140.711564 293.116235 
L 141.360873 293.906824 
L 142.010182 295.488 
L 142.659491 292.325647 
L 143.3088 294.697412 
L 143.958109 295.488 
L 144.607418 293.906824 
L 145.256727 294.697412 
L 145.906036 293.116235 
L 146.555345 293.906824 
L 147.204655 293.116235 
L 148.503273 294.697412 
L 149.152582 294.697412 
L 149.801891 293.906824 
L 151.100509 295.488 
L 152.399127 292.325647 
L 153.048436 291.535059 
L 153.697745 295.488 
L 154.347055 293.906824 
L 155.645673 295.488 
L 156.944291 295.488 
L 157.5936 287.582118 
L 158.242909 293.906824 
L 158.892218 294.697412 
L 159.541527 288.372706 
L 160.190836 294.697412 
L 160.840145 293.906824 
L 161.489455 294.697412 
L 162.138764 293.906824 
L 162.788073 295.488 
L 163.437382 293.116235 
L 164.086691 291.535059 
L 164.736 293.116235 
L 165.385309 292.325647 
L 166.034618 293.116235 
L 166.683927 290.744471 
L 167.333236 286.000941 
L 167.982545 289.953882 
L 168.631855 293.116235 
L 169.281164 292.325647 
L 169.930473 289.163294 
L 170.579782 289.953882 
L 171.229091 291.535059 
L 171.8784 293.906824 
L 172.527709 291.535059 
L 173.177018 288.372706 
L 173.826327 291.535059 
L 174.475636 287.582118 
L 175.124945 284.419765 
L 175.774255 286.000941 
L 176.423564 286.000941 
L 177.072873 293.906824 
L 177.722182 290.744471 
L 178.371491 292.325647 
L 179.670109 289.163294 
L 180.319418 284.419765 
L 180.968727 291.535059 
L 181.618036 277.304471 
L 182.267345 280.466824 
L 182.916655 289.953882 
L 184.215273 283.629176 
L 184.864582 284.419765 
L 185.513891 286.791529 
L 186.1632 292.325647 
L 186.812509 289.953882 
L 187.461818 289.953882 
L 188.111127 286.791529 
L 188.760436 282.838588 
L 189.409745 278.095059 
L 190.059055 282.838588 
L 190.708364 281.257412 
L 192.006982 290.744471 
L 192.656291 286.791529 
L 193.3056 284.419765 
L 193.954909 291.535059 
L 194.604218 283.629176 
L 195.253527 279.676235 
L 195.902836 276.513882 
L 196.552145 284.419765 
L 197.201455 286.791529 
L 197.850764 278.885647 
L 198.500073 276.513882 
L 199.149382 277.304471 
L 199.798691 284.419765 
L 200.448 278.095059 
L 201.097309 286.000941 
L 201.746618 283.629176 
L 202.395927 271.770353 
L 203.045236 280.466824 
L 204.343855 274.142118 
L 204.993164 279.676235 
L 205.642473 282.838588 
L 206.291782 282.048 
L 206.941091 267.817412 
L 207.5904 266.236235 
L 208.239709 273.351529 
L 208.889018 278.095059 
L 209.538327 267.026824 
L 210.187636 271.770353 
L 210.836945 280.466824 
L 211.486255 267.026824 
L 212.135564 274.142118 
L 213.434182 266.236235 
L 214.083491 259.911529 
L 214.7328 278.885647 
L 215.382109 277.304471 
L 216.031418 270.189176 
L 216.680727 255.168 
L 217.330036 245.680941 
L 217.979345 275.723294 
L 218.628655 274.142118 
L 219.277964 274.142118 
L 219.927273 267.026824 
L 220.576582 268.608 
L 221.225891 251.215059 
L 221.8752 251.215059 
L 222.524509 256.749176 
L 223.173818 247.262118 
L 223.823127 259.120941 
L 224.472436 265.445647 
L 225.121745 253.586824 
L 225.771055 258.330353 
L 226.420364 259.911529 
L 227.069673 255.168 
L 227.718982 252.796235 
L 228.368291 261.492706 
L 229.0176 261.492706 
L 229.666909 244.890353 
L 230.965527 225.125647 
L 231.614836 243.309176 
L 232.264145 251.215059 
L 232.913455 252.796235 
L 233.562764 244.099765 
L 234.212073 252.796235 
L 234.861382 232.240941 
L 235.510691 244.890353 
L 236.16 233.031529 
L 236.809309 235.403294 
L 237.458618 244.099765 
L 238.107927 247.262118 
L 238.757236 210.895059 
L 239.406545 229.869176 
L 240.055855 228.288 
L 240.705164 210.895059 
L 241.354473 202.989176 
L 242.003782 248.843294 
L 242.653091 241.728 
L 243.3024 215.638588 
L 243.951709 219.591529 
L 244.601018 206.151529 
L 245.250327 205.360941 
L 245.899636 206.151529 
L 247.198255 230.659765 
L 247.847564 203.779765 
L 248.496873 209.313882 
L 249.146182 210.104471 
L 250.4448 193.502118 
L 251.094109 217.219765 
L 252.392727 185.596235 
L 253.042036 186.386824 
L 253.691345 179.271529 
L 254.340655 179.271529 
L 254.989964 182.433882 
L 256.288582 218.800941 
L 256.937891 174.528 
L 257.5872 168.993882 
L 258.236509 178.480941 
L 258.885818 161.088 
L 259.535127 156.344471 
L 260.184436 184.015059 
L 260.833745 202.989176 
L 261.483055 129.464471 
L 262.132364 154.763294 
L 262.781673 166.622118 
L 263.430982 173.737412 
L 264.080291 163.459765 
L 264.7296 191.130353 
L 265.378909 182.433882 
L 266.028218 117.605647 
L 266.677527 153.972706 
L 267.326836 129.464471 
L 267.976145 157.135059 
L 268.625455 137.370353 
L 269.274764 161.088 
L 269.924073 172.946824 
L 270.573382 118.396235 
L 271.222691 142.113882 
L 271.872 116.024471 
L 272.521309 117.605647 
L 273.170618 123.139765 
L 273.819927 153.972706 
L 274.469236 172.946824 
L 275.118545 96.259765 
L 275.767855 93.888 
L 276.417164 116.815059 
L 277.066473 100.212706 
L 277.715782 111.280941 
L 278.365091 161.878588 
L 279.0144 150.019765 
L 279.663709 99.422118 
L 280.313018 93.888 
L 280.962327 100.212706 
L 281.611636 109.699765 
L 282.260945 91.516235 
L 282.910255 157.925647 
L 283.559564 119.186824 
L 284.208873 93.097412 
L 284.858182 97.840941 
L 285.507491 127.092706 
L 286.1568 89.144471 
L 286.806109 131.045647 
L 287.455418 141.323294 
L 288.104727 146.857412 
L 288.754036 74.123294 
L 289.403345 85.191529 
L 290.052655 85.982118 
L 290.701964 131.836235 
L 291.351273 76.495059 
L 292.000582 130.255059 
L 292.649891 129.464471 
L 293.2992 68.589176 
L 293.948509 91.516235 
L 294.597818 102.584471 
L 295.247127 100.212706 
L 295.896436 126.302118 
L 296.545745 165.040941 
L 297.195055 146.857412 
L 297.844364 112.071529 
L 298.493673 115.233882 
L 299.142982 101.003294 
L 299.792291 127.092706 
L 300.4416 124.720941 
L 301.090909 123.930353 
L 301.740218 171.365647 
L 302.389527 136.579765 
L 303.038836 123.930353 
L 303.688145 116.024471 
L 304.337455 141.323294 
L 304.986764 132.626824 
L 305.636073 157.135059 
L 306.285382 162.669176 
L 306.934691 121.558588 
L 307.584 129.464471 
L 308.233309 158.716235 
L 308.882618 138.951529 
L 309.531927 161.088 
L 310.181236 172.946824 
L 310.830545 197.455059 
L 311.479855 158.716235 
L 312.129164 160.297412 
L 312.778473 153.972706 
L 313.427782 145.276235 
L 314.077091 156.344471 
L 314.7264 197.455059 
L 315.375709 172.156235 
L 316.025018 171.365647 
L 316.674327 171.365647 
L 317.323636 180.062118 
L 317.972945 176.899765 
L 318.622255 165.831529 
L 319.271564 193.502118 
L 319.920873 202.989176 
L 320.570182 170.575059 
L 321.219491 193.502118 
L 321.8688 162.669176 
L 322.518109 165.831529 
L 323.167418 176.109176 
L 324.466036 240.146824 
L 325.115345 197.455059 
L 325.764655 187.177412 
L 326.413964 209.313882 
L 327.063273 209.313882 
L 327.712582 196.664471 
L 328.361891 235.403294 
L 329.0112 233.822118 
L 329.660509 223.544471 
L 330.309818 206.942118 
L 330.959127 206.942118 
L 331.608436 221.963294 
L 332.257745 230.659765 
L 332.907055 242.518588 
L 333.556364 248.843294 
L 334.205673 214.057412 
L 334.854982 222.753882 
L 335.504291 229.078588 
L 336.1536 246.471529 
L 336.802909 235.403294 
L 337.452218 244.890353 
L 338.101527 244.099765 
L 338.750836 231.450353 
L 339.400145 242.518588 
L 340.049455 248.843294 
L 340.698764 241.728 
L 341.348073 248.052706 
L 341.997382 251.215059 
L 342.646691 262.283294 
L 343.296 244.099765 
L 343.945309 251.215059 
L 344.594618 253.586824 
L 345.243927 259.120941 
L 345.893236 249.633882 
L 346.542545 259.911529 
L 347.191855 267.817412 
L 347.841164 255.958588 
L 348.490473 265.445647 
L 349.139782 259.120941 
L 349.789091 271.770353 
L 350.4384 263.864471 
L 351.087709 267.026824 
L 351.737018 265.445647 
L 352.386327 274.142118 
L 353.035636 274.142118 
L 353.684945 265.445647 
L 354.334255 266.236235 
L 354.983564 256.749176 
L 355.632873 270.189176 
L 356.282182 277.304471 
L 356.931491 267.817412 
L 357.5808 272.560941 
L 358.230109 274.142118 
L 358.879418 279.676235 
L 359.528727 276.513882 
L 360.178036 279.676235 
L 361.476655 270.979765 
L 362.125964 278.095059 
L 362.775273 276.513882 
L 363.424582 274.142118 
L 364.073891 276.513882 
L 364.7232 282.048 
L 365.372509 282.838588 
L 366.021818 282.048 
L 366.671127 279.676235 
L 367.320436 281.257412 
L 367.969745 286.791529 
L 368.619055 285.210353 
L 369.268364 282.838588 
L 369.917673 286.791529 
L 370.566982 277.304471 
L 371.216291 286.000941 
L 371.8656 282.838588 
L 372.514909 286.000941 
L 373.164218 281.257412 
L 373.813527 285.210353 
L 374.462836 288.372706 
L 375.112145 290.744471 
L 376.410764 284.419765 
L 377.060073 282.838588 
L 377.709382 289.163294 
L 378.358691 291.535059 
L 379.008 288.372706 
L 379.657309 286.000941 
L 380.306618 291.535059 
L 380.955927 287.582118 
L 381.605236 293.116235 
L 382.254545 286.000941 
L 382.903855 291.535059 
L 383.553164 293.116235 
L 384.202473 291.535059 
L 384.851782 291.535059 
L 385.501091 289.953882 
L 386.1504 287.582118 
L 386.799709 291.535059 
L 387.449018 289.163294 
L 388.098327 293.906824 
L 388.747636 293.116235 
L 389.396945 295.488 
L 390.046255 289.953882 
L 390.695564 293.906824 
L 391.344873 289.953882 
L 391.994182 295.488 
L 392.643491 293.116235 
L 393.2928 292.325647 
L 393.942109 286.791529 
L 394.591418 292.325647 
L 395.240727 291.535059 
L 395.890036 291.535059 
L 396.539345 295.488 
L 397.188655 295.488 
L 397.837964 292.325647 
L 398.487273 293.116235 
L 398.487273 293.116235 
" style="fill:none;stroke:#9467bd;stroke-linecap:square;stroke-width:1.5;"/>
   </g>
   <g id="line2d_19">
    <path clip-path="url(#p56ddfa7b33)" d="M 73.832727 295.488 
L 79.676509 295.488 
L 80.325818 294.697412 
L 80.975127 295.488 
L 86.818909 295.488 
L 87.468218 294.697412 
L 88.117527 294.697412 
L 88.766836 295.488 
L 93.312 295.488 
L 93.961309 294.697412 
L 94.610618 294.697412 
L 95.259927 295.488 
L 99.155782 295.488 
L 99.805091 293.116235 
L 100.4544 295.488 
L 101.753018 295.488 
L 102.402327 294.697412 
L 103.051636 295.488 
L 103.700945 295.488 
L 104.350255 294.697412 
L 104.999564 295.488 
L 105.648873 293.906824 
L 106.298182 295.488 
L 106.947491 292.325647 
L 107.5968 295.488 
L 111.492655 295.488 
L 112.141964 293.906824 
L 112.791273 293.906824 
L 113.440582 293.116235 
L 114.089891 294.697412 
L 114.7392 291.535059 
L 115.388509 295.488 
L 117.985745 295.488 
L 118.635055 293.116235 
L 119.284364 295.488 
L 119.933673 292.325647 
L 120.582982 291.535059 
L 121.232291 293.116235 
L 121.8816 295.488 
L 122.530909 291.535059 
L 123.180218 294.697412 
L 123.829527 295.488 
L 124.478836 294.697412 
L 126.426764 294.697412 
L 127.076073 293.116235 
L 127.725382 293.116235 
L 128.374691 294.697412 
L 129.024 293.116235 
L 129.673309 293.906824 
L 130.322618 292.325647 
L 130.971927 294.697412 
L 131.621236 295.488 
L 132.270545 295.488 
L 132.919855 293.116235 
L 133.569164 293.116235 
L 134.218473 293.906824 
L 134.867782 291.535059 
L 135.517091 293.116235 
L 136.1664 292.325647 
L 136.815709 294.697412 
L 137.465018 295.488 
L 138.114327 293.906824 
L 138.763636 293.906824 
L 139.412945 294.697412 
L 140.062255 290.744471 
L 140.711564 293.906824 
L 141.360873 293.116235 
L 142.010182 295.488 
L 142.659491 293.906824 
L 143.3088 290.744471 
L 143.958109 292.325647 
L 144.607418 291.535059 
L 145.256727 292.325647 
L 145.906036 288.372706 
L 146.555345 295.488 
L 147.204655 295.488 
L 147.853964 293.906824 
L 148.503273 289.163294 
L 149.152582 292.325647 
L 149.801891 290.744471 
L 151.100509 295.488 
L 151.749818 290.744471 
L 152.399127 292.325647 
L 153.048436 290.744471 
L 153.697745 289.953882 
L 154.347055 295.488 
L 154.996364 292.325647 
L 155.645673 292.325647 
L 156.294982 290.744471 
L 156.944291 286.791529 
L 157.5936 292.325647 
L 158.242909 289.163294 
L 158.892218 291.535059 
L 159.541527 289.953882 
L 160.190836 294.697412 
L 160.840145 291.535059 
L 161.489455 292.325647 
L 162.138764 288.372706 
L 162.788073 287.582118 
L 163.437382 293.116235 
L 164.086691 289.163294 
L 164.736 293.116235 
L 165.385309 289.163294 
L 166.034618 289.953882 
L 166.683927 287.582118 
L 167.333236 287.582118 
L 167.982545 286.791529 
L 168.631855 282.048 
L 169.281164 287.582118 
L 169.930473 289.163294 
L 171.229091 286.000941 
L 171.8784 290.744471 
L 172.527709 286.000941 
L 173.177018 285.210353 
L 173.826327 287.582118 
L 174.475636 283.629176 
L 175.124945 278.885647 
L 175.774255 279.676235 
L 176.423564 288.372706 
L 177.072873 291.535059 
L 177.722182 283.629176 
L 178.371491 286.000941 
L 179.0208 285.210353 
L 179.670109 285.210353 
L 180.319418 275.723294 
L 180.968727 278.095059 
L 182.267345 281.257412 
L 182.916655 282.048 
L 183.565964 282.048 
L 184.215273 277.304471 
L 184.864582 278.885647 
L 185.513891 276.513882 
L 186.1632 279.676235 
L 186.812509 286.791529 
L 187.461818 282.048 
L 188.760436 266.236235 
L 189.409745 271.770353 
L 190.059055 272.560941 
L 190.708364 274.142118 
L 191.357673 263.864471 
L 192.006982 278.885647 
L 192.656291 278.095059 
L 193.3056 268.608 
L 193.954909 273.351529 
L 194.604218 267.026824 
L 195.253527 269.398588 
L 195.902836 267.817412 
L 196.552145 274.932706 
L 197.201455 251.215059 
L 197.850764 252.796235 
L 198.500073 253.586824 
L 199.149382 268.608 
L 199.798691 267.817412 
L 200.448 252.005647 
L 201.746618 275.723294 
L 202.395927 255.958588 
L 203.045236 246.471529 
L 203.694545 244.099765 
L 204.343855 248.052706 
L 204.993164 248.052706 
L 205.642473 251.215059 
L 206.291782 264.655059 
L 206.941091 225.916235 
L 207.5904 229.078588 
L 208.239709 246.471529 
L 208.889018 244.890353 
L 209.538327 240.146824 
L 210.187636 262.283294 
L 210.836945 246.471529 
L 211.486255 237.775059 
L 212.135564 206.151529 
L 212.784873 227.497412 
L 213.434182 242.518588 
L 214.083491 225.916235 
L 214.7328 233.031529 
L 215.382109 244.099765 
L 216.031418 234.612706 
L 216.680727 222.753882 
L 217.330036 225.125647 
L 218.628655 207.732706 
L 219.277964 237.775059 
L 220.576582 206.942118 
L 221.225891 183.224471 
L 221.8752 210.104471 
L 222.524509 212.476235 
L 223.173818 205.360941 
L 223.823127 222.753882 
L 224.472436 216.429176 
L 225.771055 189.549176 
L 226.420364 200.617412 
L 227.069673 173.737412 
L 227.718982 151.600941 
L 228.368291 195.873882 
L 229.0176 217.219765 
L 230.965527 166.622118 
L 231.614836 166.622118 
L 232.264145 169.784471 
L 232.913455 200.617412 
L 233.562764 174.528 
L 234.212073 165.040941 
L 234.861382 162.669176 
L 235.510691 161.878588 
L 236.16 145.276235 
L 236.809309 131.836235 
L 237.458618 176.899765 
L 238.107927 188.758588 
L 238.757236 146.857412 
L 239.406545 165.831529 
L 240.055855 138.160941 
L 240.705164 150.810353 
L 241.354473 123.139765 
L 242.003782 165.831529 
L 242.653091 162.669176 
L 243.3024 128.673882 
L 243.951709 119.186824 
L 244.601018 112.071529 
L 245.250327 110.490353 
L 245.899636 155.553882 
L 246.548945 153.182118 
L 247.198255 143.695059 
L 247.847564 100.212706 
L 248.496873 108.909176 
L 249.146182 125.511529 
L 250.4448 89.144471 
L 251.094109 146.857412 
L 251.743418 140.532706 
L 252.392727 70.170353 
L 253.042036 107.328 
L 253.691345 107.328 
L 254.340655 100.212706 
L 255.639273 153.972706 
L 256.288582 142.904471 
L 256.937891 90.725647 
L 257.5872 101.793882 
L 258.236509 96.259765 
L 258.885818 80.448 
L 259.535127 74.913882 
L 260.184436 119.186824 
L 260.833745 146.066824 
L 261.483055 92.306824 
L 262.132364 72.542118 
L 262.781673 107.328 
L 263.430982 111.280941 
L 264.080291 103.375059 
L 264.7296 147.648 
L 265.378909 135.789176 
L 266.028218 78.866824 
L 266.677527 84.400941 
L 267.326836 104.165647 
L 267.976145 98.631529 
L 268.625455 95.469176 
L 269.274764 156.344471 
L 269.924073 151.600941 
L 270.573382 53.568 
L 271.222691 123.139765 
L 271.872 100.212706 
L 272.521309 135.789176 
L 273.170618 119.977412 
L 273.819927 146.066824 
L 274.469236 131.045647 
L 275.118545 111.280941 
L 275.767855 119.977412 
L 276.417164 119.186824 
L 277.715782 85.982118 
L 278.365091 145.276235 
L 279.0144 154.763294 
L 279.663709 112.862118 
L 280.962327 142.113882 
L 281.611636 129.464471 
L 282.260945 138.951529 
L 282.910255 180.852706 
L 283.559564 165.831529 
L 284.208873 144.485647 
L 284.858182 116.024471 
L 285.507491 127.883294 
L 286.1568 133.417412 
L 286.806109 127.883294 
L 287.455418 193.502118 
L 288.104727 183.224471 
L 289.403345 138.160941 
L 290.052655 167.412706 
L 290.701964 158.716235 
L 291.351273 146.857412 
L 292.000582 207.732706 
L 292.649891 200.617412 
L 293.2992 165.831529 
L 293.948509 156.344471 
L 294.597818 153.972706 
L 295.247127 177.690353 
L 295.896436 179.271529 
L 296.545745 210.104471 
L 297.195055 207.732706 
L 297.844364 187.968 
L 298.493673 177.690353 
L 299.142982 185.596235 
L 299.792291 190.339765 
L 300.4416 201.408 
L 301.090909 214.848 
L 301.740218 215.638588 
L 302.389527 196.664471 
L 303.038836 212.476235 
L 303.688145 197.455059 
L 304.337455 206.942118 
L 304.986764 203.779765 
L 306.285382 242.518588 
L 306.934691 218.800941 
L 307.584 221.172706 
L 308.233309 218.800941 
L 308.882618 224.335059 
L 309.531927 237.775059 
L 310.181236 247.262118 
L 310.830545 243.309176 
L 311.479855 241.728 
L 312.129164 236.193882 
L 312.778473 238.565647 
L 313.427782 239.356235 
L 314.077091 229.078588 
L 314.7264 246.471529 
L 315.375709 258.330353 
L 316.025018 245.680941 
L 316.674327 246.471529 
L 317.323636 243.309176 
L 317.972945 253.586824 
L 318.622255 252.796235 
L 319.271564 270.979765 
L 319.920873 259.120941 
L 320.570182 257.539765 
L 321.219491 257.539765 
L 321.8688 254.377412 
L 322.518109 263.073882 
L 323.167418 267.817412 
L 323.816727 276.513882 
L 324.466036 267.026824 
L 325.115345 266.236235 
L 325.764655 267.026824 
L 326.413964 264.655059 
L 327.063273 270.189176 
L 327.712582 269.398588 
L 328.361891 270.189176 
L 329.0112 275.723294 
L 329.660509 269.398588 
L 330.309818 268.608 
L 330.959127 271.770353 
L 331.608436 272.560941 
L 332.907055 275.723294 
L 333.556364 274.142118 
L 334.205673 274.142118 
L 334.854982 281.257412 
L 335.504291 278.095059 
L 336.1536 283.629176 
L 336.802909 276.513882 
L 337.452218 274.932706 
L 338.101527 286.000941 
L 338.750836 280.466824 
L 339.400145 279.676235 
L 340.049455 283.629176 
L 340.698764 274.932706 
L 341.348073 274.932706 
L 341.997382 286.000941 
L 342.646691 282.838588 
L 343.296 282.048 
L 343.945309 286.791529 
L 344.594618 284.419765 
L 345.243927 287.582118 
L 345.893236 280.466824 
L 346.542545 286.791529 
L 347.191855 274.142118 
L 347.841164 289.163294 
L 348.490473 283.629176 
L 349.139782 284.419765 
L 349.789091 282.048 
L 350.4384 287.582118 
L 351.087709 286.791529 
L 351.737018 291.535059 
L 352.386327 287.582118 
L 353.035636 285.210353 
L 353.684945 289.163294 
L 354.334255 292.325647 
L 354.983564 284.419765 
L 355.632873 287.582118 
L 356.282182 289.163294 
L 356.931491 287.582118 
L 357.5808 282.838588 
L 358.230109 286.791529 
L 358.879418 286.000941 
L 359.528727 291.535059 
L 360.178036 291.535059 
L 360.827345 289.953882 
L 361.476655 291.535059 
L 362.125964 291.535059 
L 362.775273 292.325647 
L 363.424582 289.163294 
L 364.073891 288.372706 
L 364.7232 288.372706 
L 365.372509 291.535059 
L 366.021818 293.116235 
L 366.671127 293.116235 
L 367.320436 293.906824 
L 367.969745 290.744471 
L 368.619055 292.325647 
L 369.268364 290.744471 
L 369.917673 292.325647 
L 370.566982 295.488 
L 371.216291 292.325647 
L 371.8656 293.116235 
L 372.514909 292.325647 
L 373.164218 293.906824 
L 373.813527 294.697412 
L 374.462836 292.325647 
L 375.112145 293.906824 
L 375.761455 293.116235 
L 376.410764 293.116235 
L 377.060073 293.906824 
L 377.709382 293.906824 
L 378.358691 295.488 
L 379.008 295.488 
L 379.657309 294.697412 
L 380.306618 293.116235 
L 380.955927 295.488 
L 381.605236 295.488 
L 382.254545 293.906824 
L 382.903855 293.906824 
L 383.553164 293.116235 
L 385.501091 295.488 
L 386.1504 295.488 
L 386.799709 293.906824 
L 387.449018 295.488 
L 389.396945 295.488 
L 390.046255 294.697412 
L 390.695564 293.116235 
L 391.344873 295.488 
L 391.994182 295.488 
L 392.643491 294.697412 
L 393.2928 295.488 
L 393.942109 293.906824 
L 395.240727 295.488 
L 398.487273 295.488 
L 398.487273 295.488 
" style="fill:none;stroke:#8c564b;stroke-linecap:square;stroke-width:1.5;"/>
   </g>
   <g id="line2d_20">
    <path clip-path="url(#p56ddfa7b33)" d="M 73.832727 295.488 
L 398.487273 295.488 
L 398.487273 295.488 
" style="fill:none;stroke:#e377c2;stroke-linecap:square;stroke-width:1.5;"/>
   </g>
   <g id="line2d_21">
    <path clip-path="url(#p56ddfa7b33)" d="M 73.832727 295.488 
L 398.487273 295.488 
L 398.487273 295.488 
" style="fill:none;stroke:#7f7f7f;stroke-linecap:square;stroke-width:1.5;"/>
   </g>
   <g id="line2d_22">
    <path clip-path="url(#p56ddfa7b33)" d="M 73.832727 295.488 
L 80.975127 295.488 
L 81.624436 293.116235 
L 82.273745 295.488 
L 86.818909 295.488 
L 87.468218 293.906824 
L 88.766836 295.488 
L 89.416145 294.697412 
L 90.065455 294.697412 
L 90.714764 295.488 
L 93.961309 295.488 
L 94.610618 293.906824 
L 95.259927 295.488 
L 95.909236 294.697412 
L 96.558545 295.488 
L 97.207855 295.488 
L 98.506473 293.906824 
L 99.155782 293.906824 
L 99.805091 293.116235 
L 100.4544 293.906824 
L 101.103709 295.488 
L 103.051636 295.488 
L 103.700945 294.697412 
L 104.999564 294.697412 
L 105.648873 295.488 
L 106.298182 294.697412 
L 106.947491 291.535059 
L 107.5968 295.488 
L 108.246109 295.488 
L 108.895418 292.325647 
L 109.544727 294.697412 
L 110.194036 295.488 
L 110.843345 290.744471 
L 111.492655 295.488 
L 112.791273 295.488 
L 113.440582 293.906824 
L 114.089891 294.697412 
L 114.7392 293.116235 
L 115.388509 293.906824 
L 116.037818 292.325647 
L 116.687127 289.163294 
L 117.336436 295.488 
L 117.985745 292.325647 
L 119.284364 295.488 
L 119.933673 295.488 
L 120.582982 294.697412 
L 121.232291 291.535059 
L 121.8816 289.953882 
L 123.180218 291.535059 
L 123.829527 293.906824 
L 124.478836 294.697412 
L 125.128145 289.163294 
L 125.777455 295.488 
L 126.426764 289.953882 
L 127.076073 293.906824 
L 127.725382 293.116235 
L 128.374691 293.906824 
L 129.024 291.535059 
L 129.673309 289.953882 
L 130.322618 289.953882 
L 130.971927 279.676235 
L 131.621236 292.325647 
L 132.270545 289.163294 
L 132.919855 289.953882 
L 133.569164 292.325647 
L 134.867782 290.744471 
L 135.517091 291.535059 
L 136.1664 291.535059 
L 136.815709 289.163294 
L 137.465018 293.116235 
L 138.114327 290.744471 
L 138.763636 282.048 
L 139.412945 282.838588 
L 140.062255 284.419765 
L 140.711564 290.744471 
L 141.360873 293.116235 
L 142.010182 290.744471 
L 142.659491 286.000941 
L 143.958109 290.744471 
L 144.607418 281.257412 
L 145.256727 285.210353 
L 145.906036 278.885647 
L 146.555345 289.163294 
L 147.204655 286.791529 
L 147.853964 287.582118 
L 148.503273 286.791529 
L 149.152582 291.535059 
L 149.801891 286.791529 
L 150.4512 279.676235 
L 151.100509 289.163294 
L 151.749818 286.000941 
L 152.399127 283.629176 
L 153.048436 270.979765 
L 153.697745 284.419765 
L 154.347055 281.257412 
L 154.996364 287.582118 
L 155.645673 290.744471 
L 156.294982 278.095059 
L 156.944291 281.257412 
L 157.5936 278.885647 
L 158.242909 282.048 
L 158.892218 281.257412 
L 159.541527 282.048 
L 160.190836 285.210353 
L 160.840145 275.723294 
L 161.489455 274.142118 
L 162.138764 274.142118 
L 162.788073 273.351529 
L 163.437382 274.932706 
L 164.086691 274.142118 
L 164.736 277.304471 
L 165.385309 272.560941 
L 166.034618 274.932706 
L 166.683927 274.932706 
L 167.333236 272.560941 
L 167.982545 260.702118 
L 168.631855 272.560941 
L 169.281164 279.676235 
L 169.930473 272.560941 
L 170.579782 250.424471 
L 171.229091 263.864471 
L 171.8784 259.120941 
L 172.527709 271.770353 
L 173.177018 266.236235 
L 173.826327 279.676235 
L 174.475636 279.676235 
L 175.124945 252.796235 
L 175.774255 263.864471 
L 176.423564 249.633882 
L 177.072873 243.309176 
L 178.371491 261.492706 
L 179.0208 252.796235 
L 179.670109 263.073882 
L 180.319418 259.120941 
L 180.968727 256.749176 
L 181.618036 264.655059 
L 182.267345 252.796235 
L 182.916655 263.864471 
L 183.565964 248.843294 
L 184.215273 241.728 
L 184.864582 236.984471 
L 185.513891 238.565647 
L 186.1632 239.356235 
L 186.812509 237.775059 
L 187.461818 244.890353 
L 188.111127 255.168 
L 188.760436 259.911529 
L 189.409745 252.005647 
L 190.059055 233.822118 
L 190.708364 244.099765 
L 191.357673 226.706824 
L 192.006982 241.728 
L 192.656291 230.659765 
L 193.3056 234.612706 
L 193.954909 230.659765 
L 194.604218 235.403294 
L 195.253527 229.869176 
L 195.902836 221.172706 
L 197.201455 244.890353 
L 197.850764 214.057412 
L 198.500073 229.078588 
L 199.149382 227.497412 
L 199.798691 221.963294 
L 200.448 204.570353 
L 201.097309 232.240941 
L 201.746618 230.659765 
L 202.395927 201.408 
L 203.694545 218.010353 
L 204.343855 208.523294 
L 204.993164 179.271529 
L 205.642473 207.732706 
L 206.291782 214.057412 
L 206.941091 204.570353 
L 207.5904 203.779765 
L 208.239709 167.412706 
L 208.889018 206.151529 
L 209.538327 182.433882 
L 210.187636 208.523294 
L 210.836945 208.523294 
L 212.135564 168.203294 
L 212.784873 179.271529 
L 213.434182 161.878588 
L 214.083491 176.899765 
L 214.7328 204.570353 
L 215.382109 197.455059 
L 216.031418 147.648 
L 217.330036 179.271529 
L 217.979345 174.528 
L 218.628655 159.506824 
L 219.277964 183.224471 
L 219.927273 188.758588 
L 220.576582 142.904471 
L 221.225891 141.323294 
L 221.8752 154.763294 
L 222.524509 150.019765 
L 223.173818 133.417412 
L 223.823127 176.109176 
L 224.472436 176.109176 
L 225.121745 160.297412 
L 225.771055 149.229176 
L 226.420364 134.208 
L 227.069673 144.485647 
L 227.718982 125.511529 
L 228.368291 171.365647 
L 229.0176 189.549176 
L 229.666909 117.605647 
L 230.316218 124.720941 
L 230.965527 128.673882 
L 232.264145 119.977412 
L 232.913455 162.669176 
L 233.562764 159.506824 
L 234.212073 120.768 
L 234.861382 142.904471 
L 235.510691 104.956235 
L 236.16 89.935059 
L 236.809309 100.212706 
L 237.458618 151.600941 
L 238.107927 138.160941 
L 238.757236 108.909176 
L 239.406545 105.746824 
L 240.055855 131.045647 
L 240.705164 93.888 
L 241.354473 123.139765 
L 242.003782 138.160941 
L 242.653091 139.742118 
L 243.3024 100.212706 
L 243.951709 85.982118 
L 244.601018 108.118588 
L 245.250327 89.935059 
L 245.899636 92.306824 
L 246.548945 155.553882 
L 247.198255 157.135059 
L 247.847564 114.443294 
L 248.496873 101.003294 
L 249.146182 108.118588 
L 249.795491 112.862118 
L 250.4448 127.883294 
L 251.094109 122.349176 
L 251.743418 132.626824 
L 252.392727 81.238588 
L 253.042036 91.516235 
L 253.691345 121.558588 
L 254.340655 135.789176 
L 254.989964 146.857412 
L 255.639273 149.229176 
L 256.288582 162.669176 
L 256.937891 116.815059 
L 257.5872 105.746824 
L 258.236509 111.280941 
L 258.885818 135.789176 
L 259.535127 122.349176 
L 260.833745 163.459765 
L 261.483055 134.998588 
L 262.132364 135.789176 
L 262.781673 158.716235 
L 263.430982 143.695059 
L 264.080291 119.977412 
L 264.7296 166.622118 
L 265.378909 157.135059 
L 266.028218 127.883294 
L 266.677527 132.626824 
L 267.326836 124.720941 
L 267.976145 160.297412 
L 268.625455 146.857412 
L 269.924073 189.549176 
L 270.573382 160.297412 
L 271.222691 172.946824 
L 271.872 174.528 
L 273.170618 161.878588 
L 273.819927 210.104471 
L 274.469236 182.433882 
L 275.118545 159.506824 
L 275.767855 176.899765 
L 276.417164 184.015059 
L 277.066473 196.664471 
L 277.715782 168.203294 
L 278.365091 206.151529 
L 279.0144 217.219765 
L 279.663709 184.015059 
L 280.962327 195.873882 
L 281.611636 198.245647 
L 282.260945 208.523294 
L 282.910255 225.916235 
L 283.559564 225.916235 
L 284.858182 179.271529 
L 285.507491 211.685647 
L 286.1568 210.895059 
L 286.806109 210.895059 
L 288.104727 244.890353 
L 289.403345 208.523294 
L 290.052655 237.775059 
L 290.701964 236.193882 
L 291.351273 224.335059 
L 292.000582 240.146824 
L 292.649891 241.728 
L 293.2992 231.450353 
L 293.948509 231.450353 
L 295.247127 236.193882 
L 295.896436 233.031529 
L 296.545745 252.796235 
L 297.195055 250.424471 
L 297.844364 235.403294 
L 298.493673 245.680941 
L 299.142982 248.052706 
L 299.792291 233.822118 
L 300.4416 250.424471 
L 301.090909 252.005647 
L 301.740218 259.120941 
L 302.389527 269.398588 
L 303.038836 253.586824 
L 303.688145 242.518588 
L 304.337455 255.168 
L 304.986764 257.539765 
L 305.636073 251.215059 
L 306.285382 266.236235 
L 306.934691 255.958588 
L 307.584 255.168 
L 308.233309 264.655059 
L 308.882618 256.749176 
L 309.531927 265.445647 
L 310.181236 257.539765 
L 310.830545 270.189176 
L 311.479855 265.445647 
L 312.129164 263.073882 
L 312.778473 255.168 
L 314.077091 270.189176 
L 314.7264 271.770353 
L 315.375709 274.932706 
L 316.025018 264.655059 
L 316.674327 270.979765 
L 317.323636 265.445647 
L 317.972945 279.676235 
L 318.622255 272.560941 
L 319.271564 277.304471 
L 319.920873 275.723294 
L 320.570182 277.304471 
L 321.219491 275.723294 
L 321.8688 258.330353 
L 322.518109 268.608 
L 323.167418 274.932706 
L 323.816727 287.582118 
L 324.466036 280.466824 
L 325.115345 281.257412 
L 325.764655 270.979765 
L 326.413964 280.466824 
L 327.063273 276.513882 
L 327.712582 277.304471 
L 328.361891 282.838588 
L 329.0112 280.466824 
L 329.660509 282.838588 
L 330.309818 278.885647 
L 330.959127 289.163294 
L 331.608436 278.095059 
L 332.257745 282.838588 
L 332.907055 289.953882 
L 333.556364 284.419765 
L 334.205673 273.351529 
L 334.854982 286.791529 
L 335.504291 284.419765 
L 336.1536 286.000941 
L 336.802909 288.372706 
L 337.452218 288.372706 
L 338.101527 285.210353 
L 338.750836 291.535059 
L 339.400145 288.372706 
L 340.049455 286.000941 
L 340.698764 286.791529 
L 341.348073 291.535059 
L 341.997382 288.372706 
L 342.646691 291.535059 
L 343.296 289.163294 
L 343.945309 289.163294 
L 344.594618 289.953882 
L 345.893236 288.372706 
L 346.542545 293.906824 
L 347.191855 291.535059 
L 347.841164 288.372706 
L 348.490473 293.116235 
L 349.139782 293.906824 
L 349.789091 292.325647 
L 350.4384 289.163294 
L 351.087709 292.325647 
L 351.737018 293.906824 
L 352.386327 292.325647 
L 353.035636 293.906824 
L 353.684945 290.744471 
L 354.334255 292.325647 
L 354.983564 294.697412 
L 355.632873 293.906824 
L 356.282182 292.325647 
L 356.931491 293.906824 
L 357.5808 292.325647 
L 358.230109 292.325647 
L 358.879418 293.906824 
L 359.528727 292.325647 
L 360.178036 293.116235 
L 360.827345 295.488 
L 361.476655 290.744471 
L 362.125964 290.744471 
L 362.775273 293.906824 
L 363.424582 294.697412 
L 364.073891 294.697412 
L 364.7232 293.906824 
L 365.372509 295.488 
L 366.671127 290.744471 
L 367.320436 292.325647 
L 367.969745 293.116235 
L 368.619055 294.697412 
L 370.566982 294.697412 
L 371.216291 295.488 
L 372.514909 295.488 
L 373.164218 293.116235 
L 373.813527 293.116235 
L 374.462836 294.697412 
L 375.112145 295.488 
L 375.761455 294.697412 
L 376.410764 293.116235 
L 377.060073 295.488 
L 377.709382 294.697412 
L 378.358691 295.488 
L 379.008 294.697412 
L 379.657309 295.488 
L 380.306618 295.488 
L 380.955927 293.116235 
L 381.605236 295.488 
L 382.254545 294.697412 
L 382.903855 295.488 
L 383.553164 294.697412 
L 384.202473 295.488 
L 384.851782 294.697412 
L 385.501091 295.488 
L 388.098327 295.488 
L 388.747636 293.906824 
L 389.396945 293.906824 
L 390.046255 295.488 
L 391.344873 295.488 
L 391.994182 294.697412 
L 392.643491 295.488 
L 397.837964 295.488 
L 398.487273 294.697412 
L 398.487273 294.697412 
" style="fill:none;stroke:#bcbd22;stroke-linecap:square;stroke-width:1.5;"/>
   </g>
   <g id="line2d_23">
    <path clip-path="url(#p56ddfa7b33)" d="M 73.832727 295.488 
L 80.975127 295.488 
L 81.624436 294.697412 
L 82.273745 295.488 
L 91.364073 295.488 
L 92.013382 294.697412 
L 92.662691 295.488 
L 398.487273 295.488 
L 398.487273 295.488 
" style="fill:none;stroke:#17becf;stroke-linecap:square;stroke-width:1.5;"/>
   </g>
   <g id="patch_3">
    <path d="M 57.6 307.584 
L 57.6 41.472 
" style="fill:none;stroke:#000000;stroke-linecap:square;stroke-linejoin:miter;stroke-width:0.8;"/>
   </g>
   <g id="patch_4">
    <path d="M 414.72 307.584 
L 414.72 41.472 
" style="fill:none;stroke:#000000;stroke-linecap:square;stroke-linejoin:miter;stroke-width:0.8;"/>
   </g>
   <g id="patch_5">
    <path d="M 57.6 307.584 
L 414.72 307.584 
" style="fill:none;stroke:#000000;stroke-linecap:square;stroke-linejoin:miter;stroke-width:0.8;"/>
   </g>
   <g id="patch_6">
    <path d="M 57.6 41.472 
L 414.72 41.472 
" style="fill:none;stroke:#000000;stroke-linecap:square;stroke-linejoin:miter;stroke-width:0.8;"/>
   </g>
  </g>
 </g>
 <defs>
  <clipPath id="p56ddfa7b33">
   <rect height="266.112" width="357.12" x="57.6" y="41.472"/>
  </clipPath>
 </defs>
</svg>
