<?xml version="1.0" encoding="utf-8" standalone="no"?>
<!DOCTYPE svg PUBLIC "-//W3C//DTD SVG 1.1//EN"
  "http://www.w3.org/Graphics/SVG/1.1/DTD/svg11.dtd">
<!-- Created with matplotlib (https://matplotlib.org/) -->
<svg height="345.6pt" version="1.1" viewBox="0 0 460.8 345.6" width="460.8pt" xmlns="http://www.w3.org/2000/svg" xmlns:xlink="http://www.w3.org/1999/xlink">
 <defs>
  <style type="text/css">
*{stroke-linecap:butt;stroke-linejoin:round;}
  </style>
 </defs>
 <g id="figure_1">
  <g id="patch_1">
   <path d="M 0 345.6 
L 460.8 345.6 
L 460.8 0 
L 0 0 
z
" style="fill:#ffffff;"/>
  </g>
  <g id="axes_1">
   <g id="patch_2">
    <path d="M 57.6 307.584 
L 414.72 307.584 
L 414.72 41.472 
L 57.6 41.472 
z
" style="fill:#ffffff;"/>
   </g>
   <g id="matplotlib.axis_1">
    <g id="xtick_1">
     <g id="line2d_1">
      <defs>
       <path d="M 0 0 
L 0 3.5 
" id="mfbe9c5a881" style="stroke:#000000;stroke-width:0.8;"/>
      </defs>
      <g>
       <use style="stroke:#000000;stroke-width:0.8;" x="73.832727" xlink:href="#mfbe9c5a881" y="307.584"/>
      </g>
     </g>
     <g id="text_1">
      <!-- 0 -->
      <defs>
       <path d="M 31.78125 66.40625 
Q 24.171875 66.40625 20.328125 58.90625 
Q 16.5 51.421875 16.5 36.375 
Q 16.5 21.390625 20.328125 13.890625 
Q 24.171875 6.390625 31.78125 6.390625 
Q 39.453125 6.390625 43.28125 13.890625 
Q 47.125 21.390625 47.125 36.375 
Q 47.125 51.421875 43.28125 58.90625 
Q 39.453125 66.40625 31.78125 66.40625 
z
M 31.78125 74.21875 
Q 44.046875 74.21875 50.515625 64.515625 
Q 56.984375 54.828125 56.984375 36.375 
Q 56.984375 17.96875 50.515625 8.265625 
Q 44.046875 -1.421875 31.78125 -1.421875 
Q 19.53125 -1.421875 13.0625 8.265625 
Q 6.59375 17.96875 6.59375 36.375 
Q 6.59375 54.828125 13.0625 64.515625 
Q 19.53125 74.21875 31.78125 74.21875 
z
" id="DejaVuSans-48"/>
      </defs>
      <g transform="translate(70.651477 322.182437)scale(0.1 -0.1)">
       <use xlink:href="#DejaVuSans-48"/>
      </g>
     </g>
    </g>
    <g id="xtick_2">
     <g id="line2d_2">
      <g>
       <use style="stroke:#000000;stroke-width:0.8;" x="138.763636" xlink:href="#mfbe9c5a881" y="307.584"/>
      </g>
     </g>
     <g id="text_2">
      <!-- 100 -->
      <defs>
       <path d="M 12.40625 8.296875 
L 28.515625 8.296875 
L 28.515625 63.921875 
L 10.984375 60.40625 
L 10.984375 69.390625 
L 28.421875 72.90625 
L 38.28125 72.90625 
L 38.28125 8.296875 
L 54.390625 8.296875 
L 54.390625 0 
L 12.40625 0 
z
" id="DejaVuSans-49"/>
      </defs>
      <g transform="translate(129.219886 322.182437)scale(0.1 -0.1)">
       <use xlink:href="#DejaVuSans-49"/>
       <use x="63.623047" xlink:href="#DejaVuSans-48"/>
       <use x="127.246094" xlink:href="#DejaVuSans-48"/>
      </g>
     </g>
    </g>
    <g id="xtick_3">
     <g id="line2d_3">
      <g>
       <use style="stroke:#000000;stroke-width:0.8;" x="203.694545" xlink:href="#mfbe9c5a881" y="307.584"/>
      </g>
     </g>
     <g id="text_3">
      <!-- 200 -->
      <defs>
       <path d="M 19.1875 8.296875 
L 53.609375 8.296875 
L 53.609375 0 
L 7.328125 0 
L 7.328125 8.296875 
Q 12.9375 14.109375 22.625 23.890625 
Q 32.328125 33.6875 34.8125 36.53125 
Q 39.546875 41.84375 41.421875 45.53125 
Q 43.3125 49.21875 43.3125 52.78125 
Q 43.3125 58.59375 39.234375 62.25 
Q 35.15625 65.921875 28.609375 65.921875 
Q 23.96875 65.921875 18.8125 64.3125 
Q 13.671875 62.703125 7.8125 59.421875 
L 7.8125 69.390625 
Q 13.765625 71.78125 18.9375 73 
Q 24.125 74.21875 28.421875 74.21875 
Q 39.75 74.21875 46.484375 68.546875 
Q 53.21875 62.890625 53.21875 53.421875 
Q 53.21875 48.921875 51.53125 44.890625 
Q 49.859375 40.875 45.40625 35.40625 
Q 44.1875 33.984375 37.640625 27.21875 
Q 31.109375 20.453125 19.1875 8.296875 
z
" id="DejaVuSans-50"/>
      </defs>
      <g transform="translate(194.150795 322.182437)scale(0.1 -0.1)">
       <use xlink:href="#DejaVuSans-50"/>
       <use x="63.623047" xlink:href="#DejaVuSans-48"/>
       <use x="127.246094" xlink:href="#DejaVuSans-48"/>
      </g>
     </g>
    </g>
    <g id="xtick_4">
     <g id="line2d_4">
      <g>
       <use style="stroke:#000000;stroke-width:0.8;" x="268.625455" xlink:href="#mfbe9c5a881" y="307.584"/>
      </g>
     </g>
     <g id="text_4">
      <!-- 300 -->
      <defs>
       <path d="M 40.578125 39.3125 
Q 47.65625 37.796875 51.625 33 
Q 55.609375 28.21875 55.609375 21.1875 
Q 55.609375 10.40625 48.1875 4.484375 
Q 40.765625 -1.421875 27.09375 -1.421875 
Q 22.515625 -1.421875 17.65625 -0.515625 
Q 12.796875 0.390625 7.625 2.203125 
L 7.625 11.71875 
Q 11.71875 9.328125 16.59375 8.109375 
Q 21.484375 6.890625 26.8125 6.890625 
Q 36.078125 6.890625 40.9375 10.546875 
Q 45.796875 14.203125 45.796875 21.1875 
Q 45.796875 27.640625 41.28125 31.265625 
Q 36.765625 34.90625 28.71875 34.90625 
L 20.21875 34.90625 
L 20.21875 43.015625 
L 29.109375 43.015625 
Q 36.375 43.015625 40.234375 45.921875 
Q 44.09375 48.828125 44.09375 54.296875 
Q 44.09375 59.90625 40.109375 62.90625 
Q 36.140625 65.921875 28.71875 65.921875 
Q 24.65625 65.921875 20.015625 65.03125 
Q 15.375 64.15625 9.8125 62.3125 
L 9.8125 71.09375 
Q 15.4375 72.65625 20.34375 73.4375 
Q 25.25 74.21875 29.59375 74.21875 
Q 40.828125 74.21875 47.359375 69.109375 
Q 53.90625 64.015625 53.90625 55.328125 
Q 53.90625 49.265625 50.4375 45.09375 
Q 46.96875 40.921875 40.578125 39.3125 
z
" id="DejaVuSans-51"/>
      </defs>
      <g transform="translate(259.081705 322.182437)scale(0.1 -0.1)">
       <use xlink:href="#DejaVuSans-51"/>
       <use x="63.623047" xlink:href="#DejaVuSans-48"/>
       <use x="127.246094" xlink:href="#DejaVuSans-48"/>
      </g>
     </g>
    </g>
    <g id="xtick_5">
     <g id="line2d_5">
      <g>
       <use style="stroke:#000000;stroke-width:0.8;" x="333.556364" xlink:href="#mfbe9c5a881" y="307.584"/>
      </g>
     </g>
     <g id="text_5">
      <!-- 400 -->
      <defs>
       <path d="M 37.796875 64.3125 
L 12.890625 25.390625 
L 37.796875 25.390625 
z
M 35.203125 72.90625 
L 47.609375 72.90625 
L 47.609375 25.390625 
L 58.015625 25.390625 
L 58.015625 17.1875 
L 47.609375 17.1875 
L 47.609375 0 
L 37.796875 0 
L 37.796875 17.1875 
L 4.890625 17.1875 
L 4.890625 26.703125 
z
" id="DejaVuSans-52"/>
      </defs>
      <g transform="translate(324.012614 322.182437)scale(0.1 -0.1)">
       <use xlink:href="#DejaVuSans-52"/>
       <use x="63.623047" xlink:href="#DejaVuSans-48"/>
       <use x="127.246094" xlink:href="#DejaVuSans-48"/>
      </g>
     </g>
    </g>
    <g id="xtick_6">
     <g id="line2d_6">
      <g>
       <use style="stroke:#000000;stroke-width:0.8;" x="398.487273" xlink:href="#mfbe9c5a881" y="307.584"/>
      </g>
     </g>
     <g id="text_6">
      <!-- 500 -->
      <defs>
       <path d="M 10.796875 72.90625 
L 49.515625 72.90625 
L 49.515625 64.59375 
L 19.828125 64.59375 
L 19.828125 46.734375 
Q 21.96875 47.46875 24.109375 47.828125 
Q 26.265625 48.1875 28.421875 48.1875 
Q 40.625 48.1875 47.75 41.5 
Q 54.890625 34.8125 54.890625 23.390625 
Q 54.890625 11.625 47.5625 5.09375 
Q 40.234375 -1.421875 26.90625 -1.421875 
Q 22.3125 -1.421875 17.546875 -0.640625 
Q 12.796875 0.140625 7.71875 1.703125 
L 7.71875 11.625 
Q 12.109375 9.234375 16.796875 8.0625 
Q 21.484375 6.890625 26.703125 6.890625 
Q 35.15625 6.890625 40.078125 11.328125 
Q 45.015625 15.765625 45.015625 23.390625 
Q 45.015625 31 40.078125 35.4375 
Q 35.15625 39.890625 26.703125 39.890625 
Q 22.75 39.890625 18.8125 39.015625 
Q 14.890625 38.140625 10.796875 36.28125 
z
" id="DejaVuSans-53"/>
      </defs>
      <g transform="translate(388.943523 322.182437)scale(0.1 -0.1)">
       <use xlink:href="#DejaVuSans-53"/>
       <use x="63.623047" xlink:href="#DejaVuSans-48"/>
       <use x="127.246094" xlink:href="#DejaVuSans-48"/>
      </g>
     </g>
    </g>
    <g id="text_7">
     <!-- Day -->
     <defs>
      <path d="M 19.671875 64.796875 
L 19.671875 8.109375 
L 31.59375 8.109375 
Q 46.6875 8.109375 53.6875 14.9375 
Q 60.6875 21.78125 60.6875 36.53125 
Q 60.6875 51.171875 53.6875 57.984375 
Q 46.6875 64.796875 31.59375 64.796875 
z
M 9.8125 72.90625 
L 30.078125 72.90625 
Q 51.265625 72.90625 61.171875 64.09375 
Q 71.09375 55.28125 71.09375 36.53125 
Q 71.09375 17.671875 61.125 8.828125 
Q 51.171875 0 30.078125 0 
L 9.8125 0 
z
" id="DejaVuSans-68"/>
      <path d="M 34.28125 27.484375 
Q 23.390625 27.484375 19.1875 25 
Q 14.984375 22.515625 14.984375 16.5 
Q 14.984375 11.71875 18.140625 8.90625 
Q 21.296875 6.109375 26.703125 6.109375 
Q 34.1875 6.109375 38.703125 11.40625 
Q 43.21875 16.703125 43.21875 25.484375 
L 43.21875 27.484375 
z
M 52.203125 31.203125 
L 52.203125 0 
L 43.21875 0 
L 43.21875 8.296875 
Q 40.140625 3.328125 35.546875 0.953125 
Q 30.953125 -1.421875 24.3125 -1.421875 
Q 15.921875 -1.421875 10.953125 3.296875 
Q 6 8.015625 6 15.921875 
Q 6 25.140625 12.171875 29.828125 
Q 18.359375 34.515625 30.609375 34.515625 
L 43.21875 34.515625 
L 43.21875 35.40625 
Q 43.21875 41.609375 39.140625 45 
Q 35.0625 48.390625 27.6875 48.390625 
Q 23 48.390625 18.546875 47.265625 
Q 14.109375 46.140625 10.015625 43.890625 
L 10.015625 52.203125 
Q 14.9375 54.109375 19.578125 55.046875 
Q 24.21875 56 28.609375 56 
Q 40.484375 56 46.34375 49.84375 
Q 52.203125 43.703125 52.203125 31.203125 
z
" id="DejaVuSans-97"/>
      <path d="M 32.171875 -5.078125 
Q 28.375 -14.84375 24.75 -17.8125 
Q 21.140625 -20.796875 15.09375 -20.796875 
L 7.90625 -20.796875 
L 7.90625 -13.28125 
L 13.1875 -13.28125 
Q 16.890625 -13.28125 18.9375 -11.515625 
Q 21 -9.765625 23.484375 -3.21875 
L 25.09375 0.875 
L 2.984375 54.6875 
L 12.5 54.6875 
L 29.59375 11.921875 
L 46.6875 54.6875 
L 56.203125 54.6875 
z
" id="DejaVuSans-121"/>
     </defs>
     <g transform="translate(226.286563 335.860562)scale(0.1 -0.1)">
      <use xlink:href="#DejaVuSans-68"/>
      <use x="77.001953" xlink:href="#DejaVuSans-97"/>
      <use x="138.28125" xlink:href="#DejaVuSans-121"/>
     </g>
    </g>
   </g>
   <g id="matplotlib.axis_2">
    <g id="ytick_1">
     <g id="line2d_7">
      <defs>
       <path d="M 0 0 
L -3.5 0 
" id="m909dbccd2c" style="stroke:#000000;stroke-width:0.8;"/>
      </defs>
      <g>
       <use style="stroke:#000000;stroke-width:0.8;" x="57.6" xlink:href="#m909dbccd2c" y="295.495823"/>
      </g>
     </g>
     <g id="text_8">
      <!-- 0 -->
      <g transform="translate(44.2375 299.295041)scale(0.1 -0.1)">
       <use xlink:href="#DejaVuSans-48"/>
      </g>
     </g>
    </g>
    <g id="ytick_2">
     <g id="line2d_8">
      <g>
       <use style="stroke:#000000;stroke-width:0.8;" x="57.6" xlink:href="#m909dbccd2c" y="256.383102"/>
      </g>
     </g>
     <g id="text_9">
      <!-- 5000 -->
      <g transform="translate(25.15 260.182321)scale(0.1 -0.1)">
       <use xlink:href="#DejaVuSans-53"/>
       <use x="63.623047" xlink:href="#DejaVuSans-48"/>
       <use x="127.246094" xlink:href="#DejaVuSans-48"/>
       <use x="190.869141" xlink:href="#DejaVuSans-48"/>
      </g>
     </g>
    </g>
    <g id="ytick_3">
     <g id="line2d_9">
      <g>
       <use style="stroke:#000000;stroke-width:0.8;" x="57.6" xlink:href="#m909dbccd2c" y="217.270381"/>
      </g>
     </g>
     <g id="text_10">
      <!-- 10000 -->
      <g transform="translate(18.7875 221.0696)scale(0.1 -0.1)">
       <use xlink:href="#DejaVuSans-49"/>
       <use x="63.623047" xlink:href="#DejaVuSans-48"/>
       <use x="127.246094" xlink:href="#DejaVuSans-48"/>
       <use x="190.869141" xlink:href="#DejaVuSans-48"/>
       <use x="254.492188" xlink:href="#DejaVuSans-48"/>
      </g>
     </g>
    </g>
    <g id="ytick_4">
     <g id="line2d_10">
      <g>
       <use style="stroke:#000000;stroke-width:0.8;" x="57.6" xlink:href="#m909dbccd2c" y="178.15766"/>
      </g>
     </g>
     <g id="text_11">
      <!-- 15000 -->
      <g transform="translate(18.7875 181.956879)scale(0.1 -0.1)">
       <use xlink:href="#DejaVuSans-49"/>
       <use x="63.623047" xlink:href="#DejaVuSans-53"/>
       <use x="127.246094" xlink:href="#DejaVuSans-48"/>
       <use x="190.869141" xlink:href="#DejaVuSans-48"/>
       <use x="254.492188" xlink:href="#DejaVuSans-48"/>
      </g>
     </g>
    </g>
    <g id="ytick_5">
     <g id="line2d_11">
      <g>
       <use style="stroke:#000000;stroke-width:0.8;" x="57.6" xlink:href="#m909dbccd2c" y="139.04494"/>
      </g>
     </g>
     <g id="text_12">
      <!-- 20000 -->
      <g transform="translate(18.7875 142.844159)scale(0.1 -0.1)">
       <use xlink:href="#DejaVuSans-50"/>
       <use x="63.623047" xlink:href="#DejaVuSans-48"/>
       <use x="127.246094" xlink:href="#DejaVuSans-48"/>
       <use x="190.869141" xlink:href="#DejaVuSans-48"/>
       <use x="254.492188" xlink:href="#DejaVuSans-48"/>
      </g>
     </g>
    </g>
    <g id="ytick_6">
     <g id="line2d_12">
      <g>
       <use style="stroke:#000000;stroke-width:0.8;" x="57.6" xlink:href="#m909dbccd2c" y="99.932219"/>
      </g>
     </g>
     <g id="text_13">
      <!-- 25000 -->
      <g transform="translate(18.7875 103.731438)scale(0.1 -0.1)">
       <use xlink:href="#DejaVuSans-50"/>
       <use x="63.623047" xlink:href="#DejaVuSans-53"/>
       <use x="127.246094" xlink:href="#DejaVuSans-48"/>
       <use x="190.869141" xlink:href="#DejaVuSans-48"/>
       <use x="254.492188" xlink:href="#DejaVuSans-48"/>
      </g>
     </g>
    </g>
    <g id="ytick_7">
     <g id="line2d_13">
      <g>
       <use style="stroke:#000000;stroke-width:0.8;" x="57.6" xlink:href="#m909dbccd2c" y="60.819498"/>
      </g>
     </g>
     <g id="text_14">
      <!-- 30000 -->
      <g transform="translate(18.7875 64.618717)scale(0.1 -0.1)">
       <use xlink:href="#DejaVuSans-51"/>
       <use x="63.623047" xlink:href="#DejaVuSans-48"/>
       <use x="127.246094" xlink:href="#DejaVuSans-48"/>
       <use x="190.869141" xlink:href="#DejaVuSans-48"/>
       <use x="254.492188" xlink:href="#DejaVuSans-48"/>
      </g>
     </g>
    </g>
    <g id="text_15">
     <!-- Cumulative cases -->
     <defs>
      <path d="M 64.40625 67.28125 
L 64.40625 56.890625 
Q 59.421875 61.53125 53.78125 63.8125 
Q 48.140625 66.109375 41.796875 66.109375 
Q 29.296875 66.109375 22.65625 58.46875 
Q 16.015625 50.828125 16.015625 36.375 
Q 16.015625 21.96875 22.65625 14.328125 
Q 29.296875 6.6875 41.796875 6.6875 
Q 48.140625 6.6875 53.78125 8.984375 
Q 59.421875 11.28125 64.40625 15.921875 
L 64.40625 5.609375 
Q 59.234375 2.09375 53.4375 0.328125 
Q 47.65625 -1.421875 41.21875 -1.421875 
Q 24.65625 -1.421875 15.125 8.703125 
Q 5.609375 18.84375 5.609375 36.375 
Q 5.609375 53.953125 15.125 64.078125 
Q 24.65625 74.21875 41.21875 74.21875 
Q 47.75 74.21875 53.53125 72.484375 
Q 59.328125 70.75 64.40625 67.28125 
z
" id="DejaVuSans-67"/>
      <path d="M 8.5 21.578125 
L 8.5 54.6875 
L 17.484375 54.6875 
L 17.484375 21.921875 
Q 17.484375 14.15625 20.5 10.265625 
Q 23.53125 6.390625 29.59375 6.390625 
Q 36.859375 6.390625 41.078125 11.03125 
Q 45.3125 15.671875 45.3125 23.6875 
L 45.3125 54.6875 
L 54.296875 54.6875 
L 54.296875 0 
L 45.3125 0 
L 45.3125 8.40625 
Q 42.046875 3.421875 37.71875 1 
Q 33.40625 -1.421875 27.6875 -1.421875 
Q 18.265625 -1.421875 13.375 4.4375 
Q 8.5 10.296875 8.5 21.578125 
z
M 31.109375 56 
z
" id="DejaVuSans-117"/>
      <path d="M 52 44.1875 
Q 55.375 50.25 60.0625 53.125 
Q 64.75 56 71.09375 56 
Q 79.640625 56 84.28125 50.015625 
Q 88.921875 44.046875 88.921875 33.015625 
L 88.921875 0 
L 79.890625 0 
L 79.890625 32.71875 
Q 79.890625 40.578125 77.09375 44.375 
Q 74.3125 48.1875 68.609375 48.1875 
Q 61.625 48.1875 57.5625 43.546875 
Q 53.515625 38.921875 53.515625 30.90625 
L 53.515625 0 
L 44.484375 0 
L 44.484375 32.71875 
Q 44.484375 40.625 41.703125 44.40625 
Q 38.921875 48.1875 33.109375 48.1875 
Q 26.21875 48.1875 22.15625 43.53125 
Q 18.109375 38.875 18.109375 30.90625 
L 18.109375 0 
L 9.078125 0 
L 9.078125 54.6875 
L 18.109375 54.6875 
L 18.109375 46.1875 
Q 21.1875 51.21875 25.484375 53.609375 
Q 29.78125 56 35.6875 56 
Q 41.65625 56 45.828125 52.96875 
Q 50 49.953125 52 44.1875 
z
" id="DejaVuSans-109"/>
      <path d="M 9.421875 75.984375 
L 18.40625 75.984375 
L 18.40625 0 
L 9.421875 0 
z
" id="DejaVuSans-108"/>
      <path d="M 18.3125 70.21875 
L 18.3125 54.6875 
L 36.8125 54.6875 
L 36.8125 47.703125 
L 18.3125 47.703125 
L 18.3125 18.015625 
Q 18.3125 11.328125 20.140625 9.421875 
Q 21.96875 7.515625 27.59375 7.515625 
L 36.8125 7.515625 
L 36.8125 0 
L 27.59375 0 
Q 17.1875 0 13.234375 3.875 
Q 9.28125 7.765625 9.28125 18.015625 
L 9.28125 47.703125 
L 2.6875 47.703125 
L 2.6875 54.6875 
L 9.28125 54.6875 
L 9.28125 70.21875 
z
" id="DejaVuSans-116"/>
      <path d="M 9.421875 54.6875 
L 18.40625 54.6875 
L 18.40625 0 
L 9.421875 0 
z
M 9.421875 75.984375 
L 18.40625 75.984375 
L 18.40625 64.59375 
L 9.421875 64.59375 
z
" id="DejaVuSans-105"/>
      <path d="M 2.984375 54.6875 
L 12.5 54.6875 
L 29.59375 8.796875 
L 46.6875 54.6875 
L 56.203125 54.6875 
L 35.6875 0 
L 23.484375 0 
z
" id="DejaVuSans-118"/>
      <path d="M 56.203125 29.59375 
L 56.203125 25.203125 
L 14.890625 25.203125 
Q 15.484375 15.921875 20.484375 11.0625 
Q 25.484375 6.203125 34.421875 6.203125 
Q 39.59375 6.203125 44.453125 7.46875 
Q 49.3125 8.734375 54.109375 11.28125 
L 54.109375 2.78125 
Q 49.265625 0.734375 44.1875 -0.34375 
Q 39.109375 -1.421875 33.890625 -1.421875 
Q 20.796875 -1.421875 13.15625 6.1875 
Q 5.515625 13.8125 5.515625 26.8125 
Q 5.515625 40.234375 12.765625 48.109375 
Q 20.015625 56 32.328125 56 
Q 43.359375 56 49.78125 48.890625 
Q 56.203125 41.796875 56.203125 29.59375 
z
M 47.21875 32.234375 
Q 47.125 39.59375 43.09375 43.984375 
Q 39.0625 48.390625 32.421875 48.390625 
Q 24.90625 48.390625 20.390625 44.140625 
Q 15.875 39.890625 15.1875 32.171875 
z
" id="DejaVuSans-101"/>
      <path id="DejaVuSans-32"/>
      <path d="M 48.78125 52.59375 
L 48.78125 44.1875 
Q 44.96875 46.296875 41.140625 47.34375 
Q 37.3125 48.390625 33.40625 48.390625 
Q 24.65625 48.390625 19.8125 42.84375 
Q 14.984375 37.3125 14.984375 27.296875 
Q 14.984375 17.28125 19.8125 11.734375 
Q 24.65625 6.203125 33.40625 6.203125 
Q 37.3125 6.203125 41.140625 7.25 
Q 44.96875 8.296875 48.78125 10.40625 
L 48.78125 2.09375 
Q 45.015625 0.34375 40.984375 -0.53125 
Q 36.96875 -1.421875 32.421875 -1.421875 
Q 20.0625 -1.421875 12.78125 6.34375 
Q 5.515625 14.109375 5.515625 27.296875 
Q 5.515625 40.671875 12.859375 48.328125 
Q 20.21875 56 33.015625 56 
Q 37.15625 56 41.109375 55.140625 
Q 45.0625 54.296875 48.78125 52.59375 
z
" id="DejaVuSans-99"/>
      <path d="M 44.28125 53.078125 
L 44.28125 44.578125 
Q 40.484375 46.53125 36.375 47.5 
Q 32.28125 48.484375 27.875 48.484375 
Q 21.1875 48.484375 17.84375 46.4375 
Q 14.5 44.390625 14.5 40.28125 
Q 14.5 37.15625 16.890625 35.375 
Q 19.28125 33.59375 26.515625 31.984375 
L 29.59375 31.296875 
Q 39.15625 29.25 43.1875 25.515625 
Q 47.21875 21.78125 47.21875 15.09375 
Q 47.21875 7.46875 41.1875 3.015625 
Q 35.15625 -1.421875 24.609375 -1.421875 
Q 20.21875 -1.421875 15.453125 -0.5625 
Q 10.6875 0.296875 5.421875 2 
L 5.421875 11.28125 
Q 10.40625 8.6875 15.234375 7.390625 
Q 20.0625 6.109375 24.8125 6.109375 
Q 31.15625 6.109375 34.5625 8.28125 
Q 37.984375 10.453125 37.984375 14.40625 
Q 37.984375 18.0625 35.515625 20.015625 
Q 33.0625 21.96875 24.703125 23.78125 
L 21.578125 24.515625 
Q 13.234375 26.265625 9.515625 29.90625 
Q 5.8125 33.546875 5.8125 39.890625 
Q 5.8125 47.609375 11.28125 51.796875 
Q 16.75 56 26.8125 56 
Q 31.78125 56 36.171875 55.265625 
Q 40.578125 54.546875 44.28125 53.078125 
z
" id="DejaVuSans-115"/>
     </defs>
     <g transform="translate(12.707812 218.753781)rotate(-90)scale(0.1 -0.1)">
      <use xlink:href="#DejaVuSans-67"/>
      <use x="69.824219" xlink:href="#DejaVuSans-117"/>
      <use x="133.203125" xlink:href="#DejaVuSans-109"/>
      <use x="230.615234" xlink:href="#DejaVuSans-117"/>
      <use x="293.994141" xlink:href="#DejaVuSans-108"/>
      <use x="321.777344" xlink:href="#DejaVuSans-97"/>
      <use x="383.056641" xlink:href="#DejaVuSans-116"/>
      <use x="422.265625" xlink:href="#DejaVuSans-105"/>
      <use x="450.048828" xlink:href="#DejaVuSans-118"/>
      <use x="509.228516" xlink:href="#DejaVuSans-101"/>
      <use x="570.751953" xlink:href="#DejaVuSans-32"/>
      <use x="602.539062" xlink:href="#DejaVuSans-99"/>
      <use x="657.519531" xlink:href="#DejaVuSans-97"/>
      <use x="718.798828" xlink:href="#DejaVuSans-115"/>
      <use x="770.898438" xlink:href="#DejaVuSans-101"/>
      <use x="832.421875" xlink:href="#DejaVuSans-115"/>
     </g>
    </g>
   </g>
   <g id="line2d_14">
    <path clip-path="url(#p5c891269ff)" d="M 73.832727 295.488 
L 398.487273 295.488 
L 398.487273 295.488 
" style="fill:none;stroke:#1f77b4;stroke-linecap:square;stroke-width:1.5;"/>
   </g>
   <g id="line2d_15">
    <path clip-path="url(#p5c891269ff)" d="M 73.832727 295.488 
L 103.700945 295.386307 
L 110.843345 295.315904 
L 117.336436 295.206388 
L 120.582982 295.104695 
L 127.076073 294.924777 
L 131.621236 294.744858 
L 134.218473 294.635343 
L 143.3088 294.10341 
L 147.853964 293.712282 
L 149.801891 293.485429 
L 153.048436 292.961318 
L 157.5936 292.41374 
L 161.489455 291.670598 
L 170.579782 290.051332 
L 173.177018 289.378593 
L 175.124945 288.995288 
L 176.423564 288.463355 
L 177.722182 287.95489 
L 179.670109 287.540295 
L 182.267345 286.5703 
L 183.565964 286.007077 
L 184.215273 285.7724 
L 184.864582 285.412563 
L 186.1632 285.029258 
L 188.111127 284.184424 
L 188.760436 283.738539 
L 190.708364 282.862414 
L 191.357673 282.408706 
L 192.656291 281.829838 
L 195.253527 279.975895 
L 196.552145 279.475252 
L 197.201455 279.123238 
L 199.149382 277.527439 
L 200.448 276.659136 
L 201.097309 276.307122 
L 204.343855 273.710037 
L 206.291782 272.333269 
L 208.889018 269.454573 
L 209.538327 268.820947 
L 210.187636 268.382885 
L 211.486255 266.927891 
L 216.031418 261.655497 
L 218.628655 257.85374 
L 220.576582 255.530445 
L 221.8752 253.434003 
L 223.173818 251.188933 
L 225.121745 248.396284 
L 227.069673 244.883962 
L 227.718982 243.538484 
L 229.0176 241.715832 
L 230.316218 238.931006 
L 232.264145 235.246588 
L 233.562764 232.962405 
L 236.809309 225.523165 
L 237.458618 224.52188 
L 238.107927 223.278095 
L 242.003782 213.656366 
L 242.653091 212.522097 
L 244.601018 207.914618 
L 246.548945 202.720449 
L 247.198255 201.335859 
L 247.847564 199.333287 
L 248.496873 197.792246 
L 250.4448 192.152192 
L 252.392727 187.708987 
L 254.989964 179.690879 
L 255.639273 178.361047 
L 259.535127 166.814971 
L 260.833745 163.764179 
L 263.430982 155.941635 
L 264.7296 152.742215 
L 265.378909 151.357624 
L 266.677527 147.853124 
L 267.976145 143.582015 
L 269.274764 140.163564 
L 269.924073 138.951069 
L 271.222691 135.516972 
L 271.872 133.858593 
L 273.170618 130.181997 
L 274.469236 127.670961 
L 277.066473 120.865347 
L 279.0144 117.188751 
L 281.611636 111.001119 
L 282.910255 108.302341 
L 283.559564 107.293233 
L 285.507491 103.272445 
L 286.1568 102.083419 
L 286.806109 100.542378 
L 288.104727 98.688435 
L 290.052655 95.144822 
L 291.351273 92.977977 
L 292.649891 91.522984 
L 293.948509 89.285737 
L 295.247127 87.517842 
L 296.545745 85.898575 
L 297.195055 85.241481 
L 299.142982 82.558349 
L 301.090909 80.360214 
L 302.389527 79.280703 
L 304.986764 76.433297 
L 306.934691 74.900078 
L 308.882618 73.296456 
L 310.181236 72.420331 
L 310.830545 72.021382 
L 312.129164 71.074854 
L 313.427782 70.159616 
L 319.271564 66.811567 
L 319.920873 66.514311 
L 320.570182 66.076248 
L 327.712582 63.518276 
L 329.660509 62.986343 
L 330.959127 62.477878 
L 333.556364 61.89901 
L 336.1536 61.398367 
L 337.452218 61.116755 
L 338.750836 60.835144 
L 340.698764 60.397081 
L 347.191855 59.31757 
L 351.737018 58.809105 
L 353.035636 58.683944 
L 354.334255 58.464913 
L 360.827345 57.948625 
L 379.008 57.174193 
L 398.487273 56.814356 
L 398.487273 56.814356 
" style="fill:none;stroke:#ff7f0e;stroke-linecap:square;stroke-width:1.5;"/>
   </g>
   <g id="line2d_16">
    <path clip-path="url(#p5c891269ff)" d="M 73.832727 295.488 
L 398.487273 295.488 
L 398.487273 295.488 
" style="fill:none;stroke:#2ca02c;stroke-linecap:square;stroke-width:1.5;"/>
   </g>
   <g id="line2d_17">
    <path clip-path="url(#p5c891269ff)" d="M 73.832727 295.488 
L 398.487273 295.45671 
L 398.487273 295.45671 
" style="fill:none;stroke:#d62728;stroke-linecap:square;stroke-width:1.5;"/>
   </g>
   <g id="line2d_18">
    <path clip-path="url(#p5c891269ff)" d="M 73.832727 295.488 
L 103.700945 295.394129 
L 105.648873 295.355017 
L 120.582982 295.245501 
L 151.749818 294.776148 
L 155.645673 294.682278 
L 158.892218 294.580585 
L 160.190836 294.502359 
L 166.683927 294.275506 
L 168.631855 294.10341 
L 173.826327 293.751395 
L 179.0208 293.235107 
L 180.968727 293.023899 
L 182.267345 292.695352 
L 184.215273 292.437208 
L 186.1632 292.210354 
L 188.760436 291.88963 
L 190.708364 291.451567 
L 197.201455 290.418991 
L 201.097309 289.511576 
L 201.746618 289.394238 
L 203.045236 289.010933 
L 207.5904 287.641988 
L 212.784873 285.842803 
L 214.7328 285.037081 
L 216.031418 284.606841 
L 217.979345 283.519507 
L 219.927273 282.815478 
L 220.576582 282.549512 
L 223.823127 280.45307 
L 225.121745 279.741219 
L 229.0176 277.527439 
L 230.316218 276.42446 
L 230.965527 275.728254 
L 232.264145 274.773903 
L 234.212073 273.420603 
L 236.16 271.676176 
L 237.458618 270.573197 
L 238.107927 270.096022 
L 238.757236 269.25901 
L 240.055855 267.944822 
L 241.354473 266.192572 
L 242.653091 265.199109 
L 245.250327 261.88235 
L 246.548945 260.231794 
L 247.198255 259.590345 
L 252.392727 252.244976 
L 255.639273 246.800485 
L 256.288582 246.041699 
L 258.885818 241.105673 
L 259.535127 239.728905 
L 260.833745 237.710689 
L 262.132364 234.675542 
L 264.080291 230.889431 
L 265.378909 228.738231 
L 266.028218 226.978158 
L 267.976145 222.566244 
L 269.274764 219.671902 
L 269.924073 218.459408 
L 273.170618 209.94848 
L 274.469236 207.33575 
L 277.066473 199.669657 
L 277.715782 197.847004 
L 279.0144 195.085646 
L 282.260945 185.362224 
L 282.910255 184.001101 
L 284.208873 180.254102 
L 286.1568 174.59058 
L 288.104727 169.967457 
L 290.052655 163.623373 
L 290.701964 162.004107 
L 291.351273 159.837262 
L 292.649891 156.559616 
L 293.948509 152.29633 
L 295.896436 146.781436 
L 297.195055 144.020078 
L 301.090909 133.443998 
L 301.740218 132.215859 
L 303.038836 128.946035 
L 304.337455 125.644922 
L 305.636073 122.664532 
L 306.285382 121.350345 
L 307.584 117.986651 
L 310.181236 112.54216 
L 310.830545 111.572165 
L 314.7264 103.647928 
L 318.622255 96.372962 
L 321.219491 92.203545 
L 323.167418 88.425257 
L 323.816727 87.588244 
L 324.466036 87.040666 
L 327.712582 82.31585 
L 329.660509 80.399326 
L 331.608436 77.91958 
L 332.907055 76.754021 
L 333.556364 76.292491 
L 334.854982 74.767095 
L 335.504291 74.110001 
L 337.452218 72.529847 
L 341.997382 68.962767 
L 342.646691 68.63422 
L 343.945309 67.687692 
L 346.542545 66.107538 
L 347.841164 65.442622 
L 352.386327 63.447873 
L 353.684945 62.939408 
L 356.931491 61.56264 
L 358.879418 60.968127 
L 365.372509 59.161119 
L 371.8656 57.93298 
L 379.657309 56.900404 
L 385.501091 56.470164 
L 387.449018 56.290245 
L 393.2928 56.071214 
L 395.240727 55.914763 
L 398.487273 55.820893 
L 398.487273 55.820893 
" style="fill:none;stroke:#9467bd;stroke-linecap:square;stroke-width:1.5;"/>
   </g>
   <g id="line2d_19">
    <path clip-path="url(#p5c891269ff)" d="M 73.832727 295.488 
L 106.298182 295.394129 
L 108.895418 295.362839 
L 117.985745 295.261146 
L 127.725382 295.018647 
L 134.867782 294.830906 
L 155.645673 293.986072 
L 167.333236 293.055189 
L 175.124945 291.92092 
L 176.423564 291.694066 
L 177.722182 291.537615 
L 179.670109 291.240359 
L 181.618036 290.716248 
L 187.461818 289.402061 
L 189.409745 288.666742 
L 196.552145 286.077479 
L 198.500073 284.802405 
L 199.798691 284.262649 
L 201.097309 283.519507 
L 201.746618 283.323944 
L 203.045236 282.447819 
L 204.993164 281.000648 
L 206.941091 279.569123 
L 207.5904 278.912029 
L 211.486255 275.99422 
L 212.135564 275.110273 
L 214.083491 273.225039 
L 217.330036 270.080377 
L 219.277964 267.858774 
L 220.576582 266.255153 
L 221.225891 265.144351 
L 225.771055 259.128815 
L 226.420364 258.19011 
L 228.368291 254.576094 
L 229.666909 252.855134 
L 230.965527 250.477081 
L 232.264145 247.958222 
L 232.913455 247.019517 
L 234.861382 243.21776 
L 236.16 240.409467 
L 236.809309 238.7902 
L 238.757236 235.090137 
L 239.406545 233.807239 
L 242.003782 227.830816 
L 242.653091 226.516628 
L 244.601018 221.306814 
L 245.250327 219.476339 
L 247.198255 215.181762 
L 249.146182 209.721626 
L 251.094109 204.339716 
L 251.743418 202.806497 
L 253.042036 198.715306 
L 254.989964 193.247348 
L 256.288582 190.337362 
L 260.184436 178.368869 
L 260.833745 176.890408 
L 264.080291 167.088761 
L 265.378909 164.045791 
L 267.326836 157.920739 
L 268.625455 153.993822 
L 269.924073 151.193351 
L 270.573382 148.799652 
L 277.066473 131.519652 
L 277.715782 129.446678 
L 279.663709 124.760974 
L 282.260945 118.385601 
L 283.559564 115.968435 
L 284.208873 114.474329 
L 286.1568 109.43661 
L 286.806109 107.778231 
L 288.104727 105.658321 
L 290.701964 100.135605 
L 291.351273 98.664967 
L 292.649891 96.857959 
L 295.896436 90.482586 
L 297.195055 88.769449 
L 300.4416 83.481409 
L 302.389527 80.915614 
L 303.688145 79.124252 
L 305.636073 76.636683 
L 306.285382 76.112572 
L 308.882618 73.155651 
L 310.181236 72.10743 
L 312.778473 69.909295 
L 314.7264 68.211803 
L 316.025018 67.351323 
L 318.622255 65.513025 
L 319.920873 64.910689 
L 323.167418 63.158439 
L 324.466036 62.689086 
L 328.361891 61.054175 
L 329.660509 60.600467 
L 331.608436 59.872971 
L 334.854982 58.902975 
L 338.750836 57.979915 
L 343.296 56.947339 
L 346.542545 56.438874 
L 347.191855 56.227665 
L 349.139782 55.938231 
L 351.087709 55.640974 
L 353.035636 55.421943 
L 357.5808 54.874365 
L 360.178036 54.616221 
L 366.671127 54.162513 
L 371.8656 53.93566 
L 377.709382 53.755741 
L 386.1504 53.646225 
L 392.643491 53.591468 
L 398.487273 53.568 
L 398.487273 53.568 
" style="fill:none;stroke:#8c564b;stroke-linecap:square;stroke-width:1.5;"/>
   </g>
   <g id="line2d_20">
    <path clip-path="url(#p5c891269ff)" d="M 73.832727 295.488 
L 398.487273 295.488 
L 398.487273 295.488 
" style="fill:none;stroke:#e377c2;stroke-linecap:square;stroke-width:1.5;"/>
   </g>
   <g id="line2d_21">
    <path clip-path="url(#p5c891269ff)" d="M 73.832727 295.488 
L 398.487273 295.488 
L 398.487273 295.488 
" style="fill:none;stroke:#7f7f7f;stroke-linecap:square;stroke-width:1.5;"/>
   </g>
   <g id="line2d_22">
    <path clip-path="url(#p5c891269ff)" d="M 73.832727 295.488 
L 98.506473 295.378484 
L 109.544727 295.214211 
L 115.388509 295.104695 
L 132.270545 294.181635 
L 143.958109 293.102124 
L 146.555345 292.632771 
L 152.399127 291.827049 
L 153.048436 291.58455 
L 158.242909 290.59891 
L 161.489455 289.816656 
L 167.333236 287.931422 
L 168.631855 287.360377 
L 169.930473 286.977072 
L 171.229091 286.218285 
L 172.527709 285.623772 
L 173.177018 285.334338 
L 174.475636 285.021436 
L 179.0208 282.127095 
L 181.618036 280.758149 
L 184.215273 279.029367 
L 187.461818 276.260187 
L 189.409745 275.078982 
L 197.201455 267.772726 
L 198.500073 266.30991 
L 199.798691 264.909675 
L 200.448 264.010082 
L 201.746618 262.74283 
L 203.045236 260.967113 
L 204.343855 259.340024 
L 204.993164 258.19011 
L 207.5904 254.709077 
L 208.239709 253.441825 
L 208.889018 252.557878 
L 209.538327 251.439254 
L 210.836945 249.718294 
L 211.486255 248.670073 
L 214.083491 243.765338 
L 215.382109 241.89575 
L 216.680727 239.126569 
L 217.979345 236.779806 
L 219.277964 234.323527 
L 219.927273 233.267484 
L 223.173818 225.796954 
L 225.121745 222.096891 
L 227.069673 217.559815 
L 227.718982 215.877968 
L 229.0176 213.601608 
L 232.264145 205.067212 
L 233.562764 202.407547 
L 236.16 195.249919 
L 236.809309 193.317751 
L 238.107927 190.337362 
L 241.354473 181.286678 
L 242.653091 178.188951 
L 246.548945 166.901019 
L 247.198255 165.532074 
L 252.392727 151.052545 
L 253.691345 147.313369 
L 255.639273 142.815406 
L 256.288582 141.501219 
L 259.535127 132.739969 
L 264.7296 120.888815 
L 265.378909 119.51987 
L 267.326836 114.560377 
L 270.573382 108.122423 
L 273.819927 102.286805 
L 274.469236 101.168181 
L 275.767855 98.649322 
L 278.365091 94.425148 
L 279.0144 93.650716 
L 280.962327 90.513876 
L 282.260945 88.691223 
L 283.559564 87.314455 
L 284.208873 86.383573 
L 284.858182 85.233659 
L 287.455418 82.057706 
L 288.104727 81.557063 
L 288.754036 80.860856 
L 289.403345 80.000377 
L 290.701964 78.84264 
L 292.000582 77.591033 
L 293.2992 76.425474 
L 295.896436 73.977018 
L 297.195055 73.108715 
L 298.493673 72.021382 
L 299.142982 71.552029 
L 299.792291 70.941871 
L 301.740218 69.705909 
L 302.389527 69.447765 
L 307.584 66.217054 
L 309.531927 65.231413 
L 310.830545 64.60561 
L 312.129164 63.987629 
L 313.427782 63.267955 
L 318.622255 61.351431 
L 321.219491 60.600467 
L 322.518109 59.966841 
L 323.167418 59.763455 
L 324.466036 59.536601 
L 326.413964 59.004668 
L 329.0112 58.36322 
L 336.802909 56.970807 
L 345.893236 56.047746 
L 349.789091 55.852183 
L 352.386327 55.711377 
L 360.827345 55.41412 
L 364.073891 55.28896 
L 379.657309 55.015171 
L 398.487273 54.9213 
L 398.487273 54.9213 
" style="fill:none;stroke:#bcbd22;stroke-linecap:square;stroke-width:1.5;"/>
   </g>
   <g id="line2d_23">
    <path clip-path="url(#p5c891269ff)" d="M 73.832727 295.488 
L 398.487273 295.472355 
L 398.487273 295.472355 
" style="fill:none;stroke:#17becf;stroke-linecap:square;stroke-width:1.5;"/>
   </g>
   <g id="patch_3">
    <path d="M 57.6 307.584 
L 57.6 41.472 
" style="fill:none;stroke:#000000;stroke-linecap:square;stroke-linejoin:miter;stroke-width:0.8;"/>
   </g>
   <g id="patch_4">
    <path d="M 414.72 307.584 
L 414.72 41.472 
" style="fill:none;stroke:#000000;stroke-linecap:square;stroke-linejoin:miter;stroke-width:0.8;"/>
   </g>
   <g id="patch_5">
    <path d="M 57.6 307.584 
L 414.72 307.584 
" style="fill:none;stroke:#000000;stroke-linecap:square;stroke-linejoin:miter;stroke-width:0.8;"/>
   </g>
   <g id="patch_6">
    <path d="M 57.6 41.472 
L 414.72 41.472 
" style="fill:none;stroke:#000000;stroke-linecap:square;stroke-linejoin:miter;stroke-width:0.8;"/>
   </g>
  </g>
 </g>
 <defs>
  <clipPath id="p5c891269ff">
   <rect height="266.112" width="357.12" x="57.6" y="41.472"/>
  </clipPath>
 </defs>
</svg>
